<svg width="60" height="47" viewBox="0 0 60 47" fill="none" xmlns="http://www.w3.org/2000/svg">
<g clip-path="url(#clip0_188_1015)">
<path d="M39.7651 24.6917C39.7651 26.2345 39.7651 27.771 39.7587 29.3138C39.7587 29.39 39.7587 29.4662 39.7651 29.5424C39.7841 29.7011 39.8413 29.771 40.0063 29.7773C40.2603 29.79 40.5143 29.79 40.7619 29.7837C41.1555 29.7773 41.1936 29.7392 41.1936 29.3456V25.1361C41.1936 25.0469 41.1872 24.9578 41.1746 24.8695C41.1701 24.8244 41.1498 24.7824 41.1172 24.751C41.0847 24.7196 41.042 24.7008 40.9968 24.698C40.9211 24.6875 40.8447 24.6832 40.7682 24.6853C40.4381 24.6917 40.1016 24.6917 39.7651 24.6917C40.0127 24.5583 40.2667 24.4123 40.527 24.279C40.6134 24.2414 40.6877 24.1806 40.7415 24.1032C40.7953 24.0258 40.8266 23.935 40.8317 23.8409C40.8508 23.5996 40.9016 23.3647 40.9397 23.1298C41.0095 22.6917 41.0857 22.26 41.1428 21.8219C41.2 21.3838 41.1873 21.4282 40.7619 21.2822C40.7198 21.2664 40.6744 21.2616 40.63 21.2683C40.5855 21.275 40.5435 21.2929 40.5079 21.3203C40.4444 21.3647 40.3873 21.4092 40.3238 21.4536C39.5556 22.0504 38.7937 22.6536 38.0254 23.2504C37.8984 23.352 37.7651 23.4536 37.6445 23.5615C37.581 23.6187 37.5048 23.6885 37.4857 23.7647C37.4286 24.0758 37.3778 24.3869 37.3461 24.698C37.3334 24.8441 37.4223 24.9266 37.5873 24.9266C37.7508 24.9257 37.914 24.9151 38.0762 24.8948C38.6349 24.825 39.2 24.7615 39.7651 24.6917ZM19.4225 24.6917C19.8098 24.7361 20.1971 24.7869 20.5907 24.8314C20.9272 24.8695 21.2701 24.9075 21.6066 24.9393C21.7971 24.952 21.8606 24.8885 21.8606 24.698C21.8542 24.4822 21.8161 24.2726 21.8034 24.0568C21.7907 23.7774 21.6574 23.5869 21.4352 23.4282C21.1495 23.225 20.8701 23.0028 20.5907 22.7806C19.9876 22.3044 19.378 21.8282 18.7749 21.3457C18.6479 21.2441 18.5336 21.2251 18.3939 21.2885C18.3495 21.3076 18.2987 21.3266 18.2543 21.3457C18.187 21.3654 18.1295 21.4096 18.0931 21.4695C18.0567 21.5294 18.044 21.6007 18.0574 21.6695C18.0765 21.8219 18.1019 21.9679 18.1273 22.1203C18.2098 22.66 18.2987 23.1933 18.3685 23.733C18.4066 24.0314 18.5336 24.2409 18.832 24.3615C19.0415 24.4504 19.2257 24.5837 19.4225 24.6917C19.0923 24.6917 18.7685 24.6853 18.4384 24.6853C18.362 24.6832 18.2855 24.6875 18.2098 24.698C18.1584 24.7024 18.1101 24.7243 18.0731 24.7602C18.0361 24.7961 18.0126 24.8436 18.0066 24.8948C17.9939 24.9837 17.9876 25.0726 17.9812 25.1615V29.3329C17.9791 29.3966 17.9834 29.4604 17.9939 29.5234C18.0193 29.7011 18.0828 29.771 18.267 29.7773C18.4701 29.79 18.6733 29.7837 18.8701 29.7837C19.4225 29.7837 19.4288 29.7773 19.4288 29.244V25.0726C19.4352 24.9456 19.4288 24.8187 19.4225 24.6917ZM13.1559 11.7077H9.36548C8.89565 11.7077 8.87025 11.7331 8.87025 12.203V15.4283C8.87025 15.9489 8.88295 15.968 9.39723 15.968H16.9463C17.0481 15.9701 17.1499 15.9659 17.2511 15.9553C17.3032 15.955 17.3531 15.9341 17.3899 15.8973C17.4267 15.8604 17.4476 15.8106 17.4479 15.7585C17.4585 15.6572 17.4627 15.5555 17.4606 15.4537V12.2284C17.4606 12.1395 17.4606 12.0506 17.4543 11.9617C17.4352 11.7966 17.3781 11.7331 17.2193 11.7204C17.1053 11.712 16.9908 11.7098 16.8765 11.7141C15.6321 11.7077 14.394 11.7077 13.1559 11.7077ZM46.0571 15.9616H49.7332C49.8476 15.9637 49.9621 15.9595 50.0761 15.9489C50.2411 15.9299 50.3046 15.8727 50.3173 15.714C50.3237 15.6251 50.3237 15.5362 50.3237 15.4474V12.222C50.3258 12.1203 50.3215 12.0185 50.311 11.9172C50.3114 11.8654 50.2918 11.8154 50.2564 11.7776C50.2209 11.7397 50.1723 11.717 50.1205 11.7141C50.0194 11.7014 49.9176 11.695 49.8157 11.695H42.2349C41.7714 11.695 41.727 11.7395 41.727 12.1839C41.7206 13.2696 41.727 14.3553 41.727 15.4474C41.727 15.5235 41.727 15.5997 41.7333 15.6759C41.7524 15.86 41.8158 15.9235 41.9936 15.9426C42.1206 15.9553 42.2476 15.9553 42.3746 15.9553C43.6063 15.9616 44.8317 15.9616 46.0571 15.9616ZM6.6671 7.09191V10.3173C6.66499 10.4317 6.66923 10.5462 6.6798 10.6601C6.67939 10.712 6.69894 10.762 6.7344 10.7998C6.76986 10.8376 6.81851 10.8604 6.87028 10.8633C6.98412 10.876 7.09858 10.8823 7.21313 10.8823H9.79087C10.3178 10.8823 10.3305 10.8696 10.3305 10.3554V3.83481C10.3305 3.32688 10.2988 3.28879 9.79722 3.28879H7.14329C7.05421 3.28668 6.9651 3.29093 6.87663 3.30149C6.75599 3.32053 6.6925 3.37767 6.6798 3.49831C6.66923 3.61227 6.66499 3.72673 6.6671 3.84116V7.09191ZM52.5268 7.07921V3.77767C52.5268 3.31419 52.5014 3.28244 52.0316 3.28244H49.3777C48.9142 3.28244 48.8697 3.32688 48.8697 3.77767V10.3808C48.8697 10.8315 48.9142 10.876 49.3777 10.876H51.9935C52.5078 10.876 52.5268 10.8569 52.5268 10.3427V7.07921ZM24.8192 12.2157V8.53951C24.8235 8.4252 24.8214 8.31074 24.8129 8.19666C24.7938 7.97444 24.7367 7.92365 24.5018 7.9046H22.6415C22.5653 7.9046 22.4891 7.91095 22.4129 7.9173C22.3681 7.91917 22.3255 7.93783 22.2938 7.96958C22.262 8.00134 22.2434 8.04386 22.2415 8.08872C22.2288 8.22841 22.2225 8.36809 22.2225 8.50142V15.8981C22.2225 15.9997 22.2225 16.1013 22.2288 16.2029C22.2479 16.4251 22.305 16.4823 22.5399 16.495C22.6161 16.5013 22.6923 16.495 22.7685 16.495H24.2859C24.8065 16.495 24.8192 16.4823 24.8192 15.968V12.2157ZM36.9651 12.2157V8.31094C36.9524 7.94904 36.9143 7.91095 36.5397 7.9046H34.8318C34.7556 7.9046 34.6794 7.9046 34.6032 7.91095C34.4636 7.93 34.4001 7.98714 34.381 8.12682C34.3683 8.2538 34.3683 8.38078 34.3683 8.50777V15.9426C34.3683 16.0315 34.3683 16.1204 34.3747 16.2093C34.3937 16.4315 34.4509 16.4886 34.6858 16.5013C34.7493 16.5077 34.8128 16.5013 34.8763 16.5013H36.4318C36.9524 16.5013 36.9651 16.4886 36.9651 15.9743V12.2157ZM21.6383 30.2853V26.2663C21.6383 26.152 21.6383 26.0377 21.632 25.9234C21.6193 25.7583 21.5558 25.6948 21.3971 25.6758C21.3209 25.6694 21.2447 25.6694 21.1685 25.6694H20.2225C19.7653 25.6694 19.7336 25.7012 19.7336 26.171V34.3614C19.7334 34.4612 19.7398 34.5609 19.7526 34.6598C19.7575 34.7042 19.777 34.7458 19.808 34.778C19.839 34.8101 19.8799 34.8311 19.9241 34.8376C19.9739 34.8502 20.0251 34.8566 20.0765 34.8566H21.3272C21.3656 34.8555 21.4038 34.8513 21.4415 34.8439C21.4924 34.8387 21.5398 34.8153 21.5748 34.778C21.6098 34.7406 21.6301 34.6919 21.632 34.6408C21.6447 34.5138 21.6447 34.3868 21.6447 34.2598C21.6405 32.9392 21.6383 31.6143 21.6383 30.2853ZM37.5619 30.2726V34.2217C37.5619 34.3487 37.5619 34.4757 37.5746 34.6027C37.5937 34.7614 37.6572 34.8312 37.8096 34.8566C37.8472 34.864 37.8855 34.8682 37.9238 34.8693H39.0984C39.1498 34.8692 39.201 34.8628 39.2508 34.8503C39.3024 34.8454 39.3506 34.8222 39.3867 34.785C39.4228 34.7477 39.4444 34.6989 39.4476 34.6471C39.4603 34.5333 39.4667 34.4188 39.4667 34.3042V26.1837C39.4688 26.082 39.4645 25.9802 39.454 25.879C39.4532 25.8275 39.4332 25.7781 39.398 25.7406C39.3628 25.703 39.3148 25.6799 39.2635 25.6758C39.1878 25.6652 39.1113 25.661 39.0349 25.6631H38.0127C37.9363 25.661 37.8599 25.6652 37.7842 25.6758C37.6635 25.6948 37.6 25.752 37.5873 25.8726C37.5746 25.9932 37.5683 26.1266 37.5683 26.2536C37.5619 27.5932 37.5598 28.9329 37.5619 30.2726ZM36.3493 40.6788V43.5232C36.348 43.6485 36.3565 43.7737 36.3746 43.8978C36.3807 43.9354 36.3989 43.97 36.4264 43.9963C36.4539 44.0226 36.4892 44.0393 36.527 44.0438C36.6026 44.0564 36.679 44.0628 36.7556 44.0628H38.3111C38.3749 44.0649 38.4387 44.0607 38.5016 44.0501C38.6222 44.0311 38.6857 43.974 38.6984 43.8533C38.709 43.7394 38.7132 43.6249 38.7111 43.5105V37.7455C38.7111 37.6566 38.7111 37.5677 38.7048 37.4788C38.6921 37.2947 38.6286 37.2375 38.4445 37.2185C38.3683 37.2121 38.2921 37.2121 38.2159 37.2121H36.8889C36.381 37.2121 36.3493 37.2439 36.3493 37.7455V40.6788ZM20.4891 40.628V43.4724C20.4891 43.574 20.4891 43.6756 20.4955 43.7771C20.5145 43.9994 20.5717 44.0565 20.8066 44.0692C20.8828 44.0755 20.959 44.0692 21.0352 44.0755H22.324C22.8383 44.0755 22.851 44.0628 22.851 43.5422V37.6693C22.8383 37.2883 22.7939 37.2312 22.4066 37.2312C21.9494 37.2248 21.4987 37.2248 21.0415 37.2312C20.5209 37.2312 20.4955 37.2629 20.4955 37.7963C20.4891 38.7359 20.4891 39.682 20.4891 40.628ZM45.3777 20.3997V23.7774C45.3777 23.879 45.3777 23.9806 45.3841 24.0822C45.3968 24.3171 45.4539 24.3742 45.6761 24.3933C45.7523 24.3996 45.8285 24.3996 45.9047 24.3996H46.7745C47.3205 24.3996 47.3459 24.3742 47.3459 23.8218V17.0727C47.348 16.971 47.3438 16.8692 47.3332 16.768C47.3142 16.5838 47.2443 16.5077 47.0729 16.5013C46.5904 16.495 46.1142 16.495 45.6317 16.5013C45.4666 16.5013 45.4031 16.5775 45.3841 16.7299C45.3735 16.8438 45.3692 16.9583 45.3714 17.0727C45.3777 18.1775 45.3777 19.2886 45.3777 20.3997ZM5.76553 5.0094V2.8126C5.76553 2.39991 5.72743 2.36182 5.30839 2.36182H3.37826C2.90842 2.36182 2.88303 2.38721 2.88303 2.8507V7.21254C2.88303 7.65698 2.91477 7.68873 3.35286 7.68873C3.99412 7.69508 4.64173 7.68873 5.283 7.68873C5.3594 7.69083 5.43586 7.68659 5.51156 7.67603C5.67029 7.65698 5.74013 7.59349 5.75918 7.43476C5.76975 7.3208 5.77399 7.20634 5.77188 7.09191C5.76553 6.39986 5.76553 5.70145 5.76553 5.0094ZM13.8162 20.4378V17.1045C13.8162 17.0029 13.8162 16.9013 13.8099 16.7997C13.7972 16.5521 13.74 16.495 13.4797 16.4886C13.0607 16.4823 12.648 16.4823 12.2289 16.4886C11.9559 16.495 11.9115 16.5521 11.8988 16.8378V23.8917C11.8988 23.9933 11.9051 24.0949 11.9115 24.1964C11.9148 24.2411 11.9328 24.2833 11.9627 24.3166C11.9925 24.3499 12.0326 24.3724 12.0766 24.3806C12.1264 24.3931 12.1776 24.3995 12.2289 24.3996C12.648 24.3996 13.0607 24.406 13.4797 24.3996C13.7464 24.3933 13.7972 24.3361 13.8099 24.0504C13.8162 23.9488 13.8099 23.8472 13.8099 23.7457C13.8162 22.6409 13.8162 21.5362 13.8162 20.4378ZM56.3172 5.04115V2.76181C56.3172 2.40626 56.2728 2.36817 55.9236 2.35547H53.949C53.8599 2.35336 53.7708 2.3576 53.6824 2.36817C53.6306 2.37125 53.5821 2.39403 53.5467 2.43182C53.5112 2.46961 53.4916 2.51954 53.4919 2.57134C53.4813 2.64704 53.4771 2.7235 53.4792 2.79991V7.28239C53.4792 7.63159 53.53 7.67603 53.8728 7.68873H55.8474C56.2855 7.68873 56.3172 7.65698 56.3172 7.2062C56.3236 6.4824 56.3172 5.7586 56.3172 5.04115ZM34.5271 24.9202V22.9139C34.5292 22.7995 34.5249 22.685 34.5144 22.5711C34.5101 22.5197 34.4882 22.4713 34.4523 22.4343C34.4164 22.3972 34.3688 22.3738 34.3175 22.3679C34.2548 22.3553 34.191 22.3489 34.1271 22.3489C33.435 22.3489 32.7366 22.3425 32.0445 22.3489C31.7017 22.3552 31.6446 22.4187 31.6319 22.7488V27.0726C31.6319 27.4662 31.6763 27.5043 32.0636 27.5107C32.7303 27.517 33.4033 27.517 34.0699 27.5107C34.4826 27.5107 34.5207 27.4726 34.5207 27.0472C34.5334 26.3361 34.5271 25.625 34.5271 24.9202ZM27.5557 24.9456V22.7869C27.5557 22.3933 27.5113 22.3552 27.1176 22.3489C26.4637 22.3425 25.8034 22.3425 25.1494 22.3489C24.7177 22.3489 24.6669 22.3996 24.6669 22.825V27.0345C24.6669 27.4599 24.7177 27.5043 25.1557 27.5107C25.797 27.517 26.4446 27.517 27.0859 27.5107C27.5303 27.5107 27.5557 27.4789 27.5557 27.0345V24.9456ZM42.9396 20.2727V23.2314C42.9395 23.3565 42.9458 23.4815 42.9587 23.606C42.9631 23.651 42.9835 23.693 43.016 23.7244C43.0486 23.7558 43.0913 23.7746 43.1365 23.7774C43.2 23.7838 43.2634 23.7901 43.3269 23.7901H44.6158C44.6667 23.7912 44.7176 23.789 44.7682 23.7838C44.9015 23.7647 44.965 23.7012 44.9841 23.5615C44.9946 23.4858 44.9989 23.4094 44.9968 23.333V17.3775C44.9968 17.2378 44.9904 17.0981 44.9777 16.9648C44.9733 16.9198 44.9529 16.8778 44.9204 16.8464C44.8878 16.815 44.8451 16.7962 44.7999 16.7934C44.7115 16.7828 44.6223 16.7786 44.5333 16.7807H43.473C42.9587 16.7807 42.946 16.7934 42.9396 17.314V20.2727ZM14.2543 20.2536V23.2123C14.2543 23.3393 14.2543 23.4663 14.267 23.5933C14.267 23.6188 14.2721 23.6441 14.2821 23.6677C14.2921 23.6912 14.3067 23.7125 14.325 23.7303C14.3434 23.748 14.3651 23.7619 14.389 23.7711C14.4128 23.7803 14.4383 23.7846 14.4638 23.7838C14.5273 23.7901 14.5908 23.7965 14.6543 23.7965H15.9051C15.9688 23.7985 16.0326 23.7943 16.0956 23.7838C16.2162 23.7647 16.2797 23.7076 16.2924 23.5933C16.305 23.4794 16.3114 23.365 16.3114 23.2504V17.333C16.3135 17.2313 16.3093 17.1295 16.2987 17.0283C16.2797 16.8696 16.2162 16.7997 16.0575 16.7934C15.7527 16.7807 15.4543 16.787 15.1495 16.787C14.9337 16.787 14.7178 16.787 14.5083 16.7934C14.3432 16.7997 14.2797 16.8632 14.267 17.0283C14.2564 17.1422 14.2522 17.2567 14.2543 17.3711V20.2536ZM31.2001 28.1456V24.2409C31.2001 24.1139 31.2001 23.9869 31.1874 23.8599C31.1747 23.7139 31.1176 23.6377 30.9842 23.6314C30.616 23.6187 30.2541 23.625 29.8858 23.6314C29.7716 23.6314 29.7017 23.7076 29.689 23.8282C29.6763 23.9488 29.67 24.0822 29.67 24.2091V32.063C29.67 32.1646 29.67 32.2662 29.6763 32.3678C29.6954 32.59 29.7652 32.6598 29.9874 32.6662C30.2097 32.6725 30.4446 32.6725 30.6668 32.6725C31.1811 32.6725 31.1938 32.6535 31.1938 32.1392C31.2001 30.7995 31.2001 29.4726 31.2001 28.1456ZM27.9938 28.1075V32.0503C27.9938 32.1646 27.9938 32.2789 28.0002 32.3932C28.0129 32.5773 28.0763 32.6471 28.2541 32.6535C28.4954 32.6662 28.7367 32.6662 28.9716 32.6598C29.4795 32.6598 29.5176 32.6281 29.5176 32.1265V24.1203C29.5207 24.0183 29.5144 23.9163 29.4985 23.8155C29.4795 23.6949 29.4224 23.625 29.3017 23.6187C28.9335 23.6123 28.5716 23.6123 28.2033 23.6187C28.0827 23.6187 28.0192 23.6885 28.0065 23.8092C27.9938 23.9298 27.9875 24.0631 27.9875 24.1901C27.9938 25.5044 27.9938 26.8059 27.9938 28.1075ZM37.2572 11.8982V14.4378C37.2699 14.7426 37.3334 14.7997 37.6508 14.8188H37.727C38.1715 14.8188 38.6095 14.8251 39.054 14.8188C39.4857 14.8124 39.5365 14.768 39.5365 14.3426V9.41569C39.5376 9.36481 39.5354 9.31392 39.5302 9.26331C39.5111 9.05379 39.454 8.99665 39.2572 8.9776C39.1937 8.97125 39.1302 8.97125 39.0667 8.97125H37.7397C37.6762 8.97125 37.6127 8.97125 37.5492 8.9776C37.3397 8.99665 37.2762 9.05379 37.2635 9.25061C37.2572 9.3522 37.2572 9.45379 37.2572 9.55537V11.8982ZM19.7146 11.8982V14.2855C19.7146 14.4 19.7209 14.5145 19.7336 14.6283C19.7375 14.6731 19.7566 14.7152 19.7878 14.7476C19.819 14.7799 19.8604 14.8006 19.905 14.8061C19.9548 14.8187 20.006 14.8251 20.0574 14.8251C20.5717 14.8251 21.0923 14.8315 21.6066 14.8251C21.8606 14.8188 21.9177 14.7553 21.9367 14.514C21.9431 14.4251 21.9431 14.3363 21.9431 14.2474V9.54902C21.9431 9.46013 21.9431 9.37125 21.9367 9.28236C21.924 9.05379 21.8606 8.98395 21.6383 8.9776C21.0987 8.97125 20.5526 8.97125 20.013 8.9776C19.8034 8.98395 19.7399 9.04744 19.7272 9.25061C19.7209 9.3522 19.7209 9.45379 19.7209 9.55537C19.7146 10.3363 19.7146 11.1173 19.7146 11.8982ZM32.089 11.6696V15.0093C32.1017 15.2886 32.1525 15.3458 32.4255 15.3521C32.7176 15.3585 33.0096 15.3585 33.2953 15.3585C33.3971 15.3606 33.4989 15.3563 33.6001 15.3458C33.6581 15.3429 33.7129 15.3185 33.754 15.2774C33.795 15.2364 33.8194 15.1815 33.8223 15.1236C33.8381 14.9845 33.8445 14.8445 33.8414 14.7045V8.71094C33.8414 8.60935 33.8413 8.50777 33.835 8.40618C33.816 8.13952 33.7525 8.06968 33.4858 8.06333C33.181 8.05063 32.8826 8.05698 32.5779 8.05698C32.1144 8.05698 32.089 8.08237 32.089 8.55856V11.6696ZM9.55595 20.2854V23.3584C9.55384 23.4728 9.55808 23.5873 9.56865 23.7012C9.58135 23.8409 9.64484 23.9107 9.77817 23.9298C9.86665 23.9403 9.95576 23.9446 10.0448 23.9425H10.7623C11.2702 23.9361 11.302 23.9044 11.3083 23.4092V17.187C11.3083 17.1108 11.3083 17.0346 11.302 16.9584C11.2829 16.7553 11.2194 16.6854 11.0226 16.66C10.9847 16.6548 10.9465 16.6526 10.9083 16.6537H9.9623C9.89833 16.6537 9.83453 16.6601 9.77183 16.6727C9.72062 16.6787 9.67305 16.7022 9.63718 16.7392C9.60131 16.7762 9.57934 16.8245 9.575 16.8759C9.5623 17.0029 9.55595 17.1299 9.55595 17.2569V20.2854ZM47.9427 20.2536V23.3647C47.9427 23.4917 47.9491 23.6187 47.9618 23.7457C47.9646 23.7908 47.9834 23.8335 48.0148 23.8661C48.0462 23.8987 48.0882 23.919 48.1332 23.9234C48.2215 23.9361 48.3107 23.9425 48.3999 23.9425H49.1554C49.6634 23.9425 49.6951 23.9044 49.7015 23.4092V17.3775C49.7006 17.2393 49.69 17.1014 49.6697 16.9648C49.6316 16.7235 49.5681 16.6664 49.3205 16.66C49.0411 16.6537 48.7618 16.6537 48.4888 16.6537C47.9745 16.6537 47.9554 16.6727 47.9554 17.187C47.9428 18.2029 47.9427 19.2251 47.9427 20.2536ZM27.1049 11.7522V8.68554C27.1049 8.58396 27.1049 8.48237 27.0986 8.38078C27.0859 8.13317 27.0287 8.08238 26.7684 8.06333C26.7177 8.06015 26.6668 8.06015 26.616 8.06333H25.8986C25.4351 8.06968 25.4097 8.08872 25.4097 8.56491V14.8569C25.4097 14.9458 25.4097 15.0347 25.4161 15.1236C25.4351 15.2823 25.4923 15.3394 25.6637 15.3585C25.7399 15.3648 25.8161 15.3648 25.8922 15.3648H26.6097C27.0732 15.3585 27.0986 15.3331 27.0986 14.8632C27.1049 13.822 27.1049 12.7871 27.1049 11.7522ZM33.9874 30.2726V32.2471C33.9874 32.6344 34.0318 32.6725 34.4255 32.6789C34.9969 32.6852 35.562 32.6852 36.1334 32.6789C36.527 32.6789 36.5715 32.6408 36.5715 32.2408C36.5778 30.9646 36.5778 29.6884 36.5715 28.4123C36.5715 28.0123 36.5143 27.9615 36.1016 27.9551C35.5429 27.9488 34.9905 27.9488 34.4318 27.9551C34.0191 27.9551 33.9874 27.9932 33.981 28.4186C33.981 29.0345 33.9874 29.6567 33.9874 30.2726ZM31.5684 12.4696V9.62521C31.5684 9.52362 31.5684 9.42204 31.562 9.32045C31.543 9.06014 31.4795 8.99665 31.2065 8.9776C31.1431 8.97124 31.0793 8.97124 31.016 8.9776C30.7239 8.9776 30.4319 8.97125 30.1462 8.98395C29.9049 8.99665 29.8414 9.06649 29.8224 9.3141C29.816 9.41569 29.816 9.51728 29.816 9.61886V15.4601C29.8287 15.822 29.8795 15.8791 30.235 15.8918C30.5144 15.8981 30.7938 15.8981 31.0668 15.8918C31.5303 15.8854 31.5557 15.8664 31.5557 15.3966C31.5684 14.4188 31.5684 13.441 31.5684 12.4696ZM29.3652 12.4569V9.61251C29.3652 9.51093 29.3652 9.40934 29.3589 9.30775C29.3398 9.06014 29.2827 8.9903 29.0351 8.98395C28.6668 8.97125 28.3049 8.98395 27.9367 8.98395C27.9113 8.98395 27.8859 8.9903 27.8605 8.9903C27.7271 9.01569 27.651 9.07919 27.6383 9.21252C27.6256 9.34585 27.6192 9.46648 27.6192 9.59346V15.2823C27.6192 15.3839 27.6192 15.4855 27.6256 15.587C27.6446 15.8029 27.7144 15.8791 27.9367 15.8854C28.3176 15.8981 28.6922 15.8918 29.0732 15.8854C29.0986 15.8854 29.124 15.8791 29.1493 15.8791C29.27 15.86 29.3335 15.8029 29.3462 15.6823C29.3567 15.5683 29.361 15.4539 29.3589 15.3394C29.3716 14.3807 29.3652 13.422 29.3652 12.4569ZM25.1177 43.5867H23.5621C23.1748 43.593 23.1367 43.6311 23.1304 44.0311C23.124 44.7359 23.124 45.447 23.1304 46.1517C23.1304 46.5834 23.1812 46.6342 23.6129 46.6342C24.6097 46.6406 25.6065 46.6406 26.6034 46.6342C27.0287 46.6342 27.0732 46.5834 27.0795 46.1454C27.0859 45.4533 27.0859 44.7549 27.0859 44.0628C27.088 43.9864 27.0837 43.91 27.0732 43.8343C27.0478 43.6819 26.9779 43.6121 26.8256 43.593C26.7243 43.5824 26.6226 43.5782 26.5208 43.5803C26.0573 43.5867 25.5875 43.5867 25.1177 43.5867ZM37.3334 20.1203V17.8092C37.3334 17.3838 37.2826 17.3394 36.8508 17.333C36.4699 17.3267 36.0953 17.3267 35.7143 17.333C35.2572 17.3394 35.2191 17.3775 35.2128 17.8346V22.3425C35.2128 22.4444 35.2191 22.5462 35.2318 22.6473C35.2699 22.8695 35.3334 22.9393 35.5556 22.9393C36.0318 22.9457 36.5143 22.952 36.9969 22.9393C37.2445 22.933 37.308 22.8631 37.327 22.6219C37.3334 22.5203 37.3334 22.4187 37.3334 22.3171V20.1203ZM25.2065 30.3043V28.5583C25.2065 28.444 25.2065 28.3297 25.2002 28.2154C25.1875 28.0313 25.124 27.9742 24.9399 27.9551C24.8637 27.9488 24.7875 27.9488 24.7113 27.9488H23.1558C23.0667 27.9467 22.9776 27.9509 22.8891 27.9615C22.7685 27.9805 22.705 28.0377 22.6923 28.1583C22.6817 28.2468 22.6775 28.3359 22.6796 28.425V32.1773C22.6796 32.2535 22.6796 32.3297 22.6859 32.4059C22.705 32.59 22.7621 32.6471 22.9463 32.6662C23.0097 32.6725 23.0732 32.6725 23.1367 32.6725H24.7304C25.1748 32.6725 25.2065 32.6408 25.2065 32.2027V30.3043ZM34.1271 46.6342H35.6064C36.0254 46.6279 36.0635 46.5961 36.0635 46.1771V44.0565C36.0635 43.6121 36.0318 43.5867 35.5874 43.5867H32.635C32.2096 43.5867 32.1715 43.6184 32.1715 44.0311C32.1652 44.7359 32.1652 45.447 32.1715 46.1517C32.1715 46.5771 32.2223 46.6279 32.6541 46.6279C33.1429 46.6406 33.6318 46.6342 34.1271 46.6342ZM19.7336 19.0346V21.3457C19.7304 21.4603 19.7368 21.575 19.7526 21.6885C19.7653 21.8092 19.8352 21.8663 19.9558 21.879C20.0315 21.8896 20.108 21.8938 20.1844 21.8917H21.3209C21.7463 21.8854 21.7844 21.8536 21.7844 21.4409V16.6981C21.7843 16.6089 21.778 16.5198 21.7653 16.4315C21.7588 16.3872 21.7379 16.3464 21.7057 16.3154C21.6735 16.2844 21.632 16.2649 21.5875 16.26C21.5241 16.2537 21.4606 16.2473 21.3971 16.2473H20.1082C20.0571 16.2453 20.0059 16.2495 19.9558 16.26C19.9047 16.2619 19.8559 16.2822 19.8186 16.3173C19.7812 16.3523 19.7578 16.3996 19.7526 16.4505C19.74 16.5644 19.7336 16.6788 19.7336 16.7934C19.7272 17.5426 19.7272 18.2918 19.7336 19.0346ZM21.9177 20.1394V22.3425C21.9177 22.4441 21.9177 22.5457 21.924 22.6473C21.9367 22.8695 22.0002 22.9266 22.2288 22.9457C22.2794 22.951 22.3303 22.9531 22.3812 22.952H23.4796C23.9367 22.9457 23.9812 22.9076 23.9812 22.4504V17.86C23.9833 17.7709 23.979 17.6818 23.9685 17.5934C23.9494 17.441 23.8796 17.3775 23.7208 17.3521C23.683 17.3468 23.6448 17.3447 23.6066 17.3457H22.3177C22.2667 17.3468 22.2158 17.3511 22.1653 17.3584C22.0066 17.3838 21.9431 17.4537 21.924 17.6061C21.9135 17.72 21.9092 17.8345 21.9113 17.9489C21.9177 18.6727 21.9177 19.4029 21.9177 20.1394ZM39.4603 19.0727V16.8315C39.4624 16.717 39.4582 16.6026 39.4476 16.4886C39.4286 16.3299 39.3651 16.2727 39.2 16.2537C39.1746 16.2537 39.1492 16.2473 39.1238 16.2473C38.6794 16.2473 38.2413 16.241 37.7969 16.2473C37.5365 16.2537 37.4857 16.3108 37.4667 16.5585C37.4603 16.6346 37.4603 16.7108 37.4603 16.787V21.3393C37.4603 21.4155 37.4603 21.4917 37.4667 21.5679C37.4857 21.8155 37.5365 21.8663 37.7969 21.879C37.9492 21.8854 38.1016 21.8854 38.254 21.8854C38.5714 21.8854 38.8889 21.8854 39.2 21.879C39.3651 21.8727 39.4286 21.8028 39.4476 21.6504C39.4582 21.5365 39.4624 21.422 39.4603 21.3076V19.0727ZM29.5176 36.3931V34.0058C29.5188 33.8805 29.5103 33.7553 29.4922 33.6312C29.4873 33.5868 29.4679 33.5453 29.4368 33.5131C29.4058 33.4809 29.365 33.4599 29.3208 33.4535C29.2475 33.4391 29.1732 33.4306 29.0986 33.4281H28.0383C27.9748 33.4281 27.9113 33.4344 27.8478 33.4408C27.7964 33.4451 27.7481 33.4671 27.7111 33.5029C27.6741 33.5388 27.6506 33.5864 27.6446 33.6376C27.6319 33.7773 27.6256 33.917 27.6256 34.0503V38.6788C27.6256 38.7804 27.6256 38.882 27.6319 38.9836C27.651 39.2121 27.7081 39.2756 27.9367 39.282C28.3684 39.2883 28.7938 39.282 29.2255 39.282C29.2511 39.283 29.2767 39.2809 29.3017 39.2756C29.3529 39.2737 29.4016 39.2534 29.439 39.2184C29.4763 39.1834 29.4997 39.1361 29.5049 39.0851C29.5176 38.9713 29.5239 38.8568 29.5239 38.7423C29.5176 37.9613 29.5176 37.1804 29.5176 36.3931ZM29.7271 36.3106V38.7359C29.725 38.8504 29.7292 38.9648 29.7398 39.0788C29.7525 39.1994 29.816 39.2566 29.9366 39.2756C30.0123 39.2862 30.0888 39.2904 30.1652 39.2883H31.0731C31.5366 39.2883 31.5684 39.2629 31.5684 38.7931V33.8979C31.5705 33.8088 31.5662 33.7197 31.5557 33.6312C31.5511 33.5806 31.5289 33.5331 31.4929 33.4971C31.457 33.4612 31.4095 33.439 31.3588 33.4344C31.2831 33.4239 31.2067 33.4196 31.1303 33.4217H30.2224C29.7589 33.4281 29.7335 33.4535 29.7271 33.917V36.3106ZM34.2985 34.7169H36.3112C36.8508 34.7169 36.8762 34.6915 36.8762 34.1709V33.409C36.8762 33.3328 36.8762 33.2566 36.8699 33.1805C36.8445 32.9836 36.781 32.9201 36.5778 32.9011C36.4762 32.8947 36.3746 32.8947 36.2731 32.8947H32.4064C32.3176 32.8947 32.2287 32.8947 32.1398 32.9011C31.8668 32.9201 31.7969 32.9773 31.7906 33.2439C31.7842 33.6249 31.7842 34.0058 31.7906 34.3804C31.7969 34.6471 31.8541 34.6979 32.1398 34.7169C32.2287 34.7233 32.3176 34.7169 32.4064 34.7169H34.2985ZM24.8637 34.7169H26.8319C26.9335 34.7169 27.0351 34.7169 27.1367 34.7106C27.3208 34.6915 27.3843 34.6344 27.397 34.4503C27.4033 34.3741 27.4033 34.2979 27.4033 34.2217V33.39C27.4033 32.9265 27.3716 32.8947 26.9081 32.8947H22.8955C22.8064 32.8926 22.7173 32.8969 22.6288 32.9074C22.4637 32.9328 22.4066 32.99 22.3812 33.1487C22.3706 33.2244 22.3664 33.3009 22.3685 33.3773V34.2471C22.3748 34.6852 22.4002 34.7106 22.851 34.7169H24.8637ZM2.21637 1.99357V0.552316C2.21637 0.45073 2.21637 0.349145 2.21002 0.247559C2.19732 0.101529 2.13383 0.0253399 2.0005 0.0253399C1.41003 0.0189908 0.813213 0.0189908 0.222745 0.0253399C0.0894132 0.0253399 0.0322714 0.107878 0.013224 0.253908C0.00265766 0.355131 -0.00158361 0.456915 0.000525466 0.558666V3.36498C0.000525466 3.45387 0.000525854 3.54275 0.00687498 3.63164C0.0259223 3.83481 0.0894136 3.8983 0.292585 3.90465C0.832261 3.911 1.37829 3.911 1.91796 3.90465C2.14018 3.8983 2.19732 3.83481 2.21002 3.59989C2.21637 3.51101 2.21637 3.42212 2.21637 3.33323V1.99357ZM59.1934 1.99357V0.520571C59.1955 0.41882 59.1913 0.317037 59.1807 0.215814C59.1787 0.163717 59.1563 0.114504 59.1182 0.0788477C59.0802 0.043191 59.0296 0.0239653 58.9775 0.0253399C58.8763 0.0147736 58.7745 0.0105318 58.6728 0.0126409H57.4982C57.4093 0.0126409 57.3204 0.0126413 57.2315 0.0189904C57.0664 0.0380378 57.0029 0.0951797 56.9839 0.253908C56.9754 0.342531 56.9733 0.431645 56.9776 0.520571V3.39672C56.9744 3.49868 56.9808 3.60071 56.9966 3.70148C57.0156 3.82211 57.0728 3.87291 57.1934 3.89195C57.2569 3.8983 57.3204 3.90465 57.3839 3.90465C57.8474 3.90465 58.3172 3.911 58.7807 3.90465C59.1426 3.8983 59.1807 3.85386 59.187 3.47926C59.1934 2.97768 59.1934 2.48245 59.1934 1.99357ZM27.1494 44.2089C27.1494 44.7168 27.143 45.2184 27.1494 45.7263C27.1557 46.0438 27.2065 46.0882 27.5303 46.1073H28.8954C29.4033 46.1073 29.4414 46.0755 29.4414 45.5739V42.8819C29.4446 42.78 29.4382 42.6779 29.4224 42.5772C29.4033 42.4565 29.3398 42.4057 29.2192 42.3867C29.1813 42.3814 29.1431 42.3793 29.1049 42.3803C28.5652 42.3803 28.0192 42.374 27.4795 42.3803C27.2192 42.3867 27.1684 42.4438 27.1494 42.6914C27.143 42.7676 27.1494 42.8438 27.1494 42.92V44.2089ZM32.1017 44.2406V42.9137C32.1038 42.8119 32.0996 42.7101 32.089 42.6089C32.0763 42.4629 32.0128 42.4057 31.8795 42.3803C31.8416 42.3751 31.8034 42.3729 31.7652 42.374C31.2255 42.374 30.6795 42.3676 30.1398 42.374C29.8795 42.3803 29.8287 42.4375 29.816 42.6851C29.8097 42.774 29.8097 42.8629 29.8097 42.9518V45.1485C29.8097 45.339 29.8033 45.5295 29.8097 45.7136C29.8224 46.0184 29.8795 46.0755 30.197 46.0946H30.2731C30.7239 46.0946 31.1811 46.1009 31.6319 46.0946C32.0382 46.0882 32.089 46.0374 32.0953 45.6311C32.108 45.1739 32.1017 44.7041 32.1017 44.2406ZM7.27662 19.9552V21.8155C7.27662 21.9171 7.27662 22.0187 7.28297 22.1203C7.29567 22.3488 7.35281 22.4187 7.58138 22.425C7.86074 22.4377 8.1401 22.4314 8.41311 22.4314C8.93374 22.4314 8.95279 22.4187 8.95279 21.9044V17.9934C8.95277 17.8788 8.94641 17.7643 8.93374 17.6505C8.9283 17.6124 8.91143 17.5768 8.88536 17.5485C8.85929 17.5201 8.82524 17.5004 8.78771 17.4918C8.73789 17.4792 8.68671 17.4728 8.63533 17.4727C8.29248 17.4727 7.94963 17.4664 7.61312 17.4727C7.35281 17.4791 7.30202 17.5362 7.28297 17.7838C7.27662 17.8854 7.27662 17.987 7.27662 18.0886V19.9552ZM51.911 19.9552V18.0251C51.9131 17.9107 51.9088 17.7962 51.8983 17.6822C51.8959 17.6308 51.8744 17.5821 51.838 17.5457C51.8016 17.5092 51.7529 17.4877 51.7014 17.4854C51.6257 17.4749 51.5493 17.4706 51.4729 17.4727H50.7554C50.2792 17.4791 50.2411 17.5108 50.2411 17.9934V21.8917C50.242 22.0046 50.2526 22.1172 50.2729 22.2282C50.2794 22.2724 50.3003 22.3133 50.3325 22.3443C50.3647 22.3753 50.4062 22.3948 50.4507 22.3996C50.5369 22.4121 50.6239 22.4184 50.711 22.4187C50.9649 22.4187 51.2125 22.425 51.4665 22.4187C51.8729 22.4123 51.911 22.3806 51.911 21.9552V19.9552ZM19.5812 18.8505V17.1045C19.5685 16.7997 19.505 16.7426 19.1876 16.7235H18.2797C17.8035 16.7299 17.7654 16.768 17.7654 17.2505V20.4378C17.7654 20.514 17.7654 20.5901 17.7717 20.6663C17.7908 20.8822 17.8606 20.9457 18.0828 20.9647C18.1334 20.97 18.1843 20.9721 18.2352 20.9711C18.5273 20.9711 18.8193 20.9774 19.105 20.9711C19.5304 20.9647 19.5749 20.9203 19.5812 20.4822C19.5812 19.9362 19.5749 19.3902 19.5812 18.8505ZM39.6698 18.806V20.3933C39.6698 20.4949 39.6698 20.5965 39.6762 20.6981C39.6889 20.8759 39.7524 20.952 39.9365 20.9584C40.3429 20.9711 40.7428 20.9584 41.1492 20.9584C41.1622 20.9594 41.1753 20.9572 41.1873 20.952C41.346 20.9266 41.4095 20.8632 41.4286 20.7044C41.4391 20.616 41.4434 20.5268 41.4413 20.4378V17.2188C41.4413 17.1426 41.4412 17.0664 41.4349 16.9902C41.4159 16.787 41.3587 16.7235 41.1492 16.7172C40.7555 16.7045 40.3682 16.7108 39.9746 16.7172C39.9492 16.7172 39.9238 16.7235 39.8984 16.7235C39.7587 16.7489 39.6952 16.8061 39.6825 16.9457C39.672 17.047 39.6677 17.1488 39.6698 17.2505V18.806ZM16.2352 33.0408V35.5042C16.2352 35.6058 16.2352 35.7074 16.2416 35.809C16.2606 36.0122 16.3178 36.0693 16.5273 36.082C16.6543 36.0884 16.7813 36.0883 16.9082 36.0883C17.4098 36.082 17.4479 36.0503 17.4479 35.5487V30.5456C17.4511 30.4436 17.4447 30.3416 17.4289 30.2408C17.4035 30.0884 17.3336 30.0249 17.1749 30.0122C17.0162 29.9995 16.8701 29.9995 16.7178 29.9995C16.2543 29.9995 16.2289 30.0249 16.2289 30.5011C16.2352 31.3456 16.2352 32.19 16.2352 33.0408ZM42.7174 25.2885V22.7806C42.7174 22.666 42.7111 22.5516 42.6984 22.4377C42.6936 22.3934 42.673 22.3523 42.6404 22.3219C42.6077 22.2916 42.5652 22.2741 42.5206 22.2727C42.3555 22.26 42.1904 22.26 42.0254 22.26C41.5111 22.26 41.4984 22.2727 41.4984 22.7996V27.7329C41.4984 27.8218 41.4984 27.9107 41.5047 27.9996C41.5238 28.2027 41.5809 28.2599 41.7905 28.2726C41.9301 28.2789 42.0698 28.2789 42.2095 28.2789C42.6984 28.2789 42.7174 28.2599 42.7174 27.7583V25.2885ZM16.5336 25.225V27.8091C16.54 28.2345 16.5717 28.2662 16.9781 28.2726H17.2447C17.7273 28.2662 17.7527 28.2472 17.7527 27.752V22.7806C17.7548 22.6788 17.7505 22.5771 17.74 22.4758C17.7209 22.3362 17.6574 22.2727 17.5114 22.2663C17.3463 22.2536 17.1813 22.2536 17.0162 22.2536C16.5527 22.26 16.5273 22.279 16.5273 22.7552C16.5336 23.5806 16.5336 24.406 16.5336 25.225ZM27.8605 18.2346V16.9838C27.8605 16.8188 27.8668 16.6537 27.8605 16.4886C27.8478 16.1966 27.7906 16.1331 27.4986 16.1204C27.1557 16.1077 26.8192 16.1077 26.4764 16.1204C26.178 16.1267 26.1208 16.1966 26.1018 16.4759C26.0954 16.5394 26.1018 16.6029 26.1018 16.6664V19.7711C26.1018 19.86 26.1018 19.9489 26.1081 20.0378C26.1272 20.1965 26.1843 20.2663 26.3494 20.2727C26.7684 20.279 27.1811 20.2854 27.6002 20.2727C27.7843 20.2663 27.8414 20.1965 27.8541 20.0124C27.8605 19.9108 27.8605 19.8092 27.8605 19.7076V18.2346ZM33.0922 18.2537V16.6981C33.0922 16.5965 33.0922 16.495 33.0858 16.3934C33.0668 16.2219 33.0033 16.1521 32.8191 16.1267C32.7556 16.1204 32.6922 16.114 32.6287 16.114C32.3493 16.114 32.0699 16.1077 31.7969 16.114C31.3906 16.1204 31.3334 16.1712 31.3334 16.5712C31.3271 17.6695 31.3334 18.7679 31.3334 19.8663C31.3313 19.9301 31.3356 19.9939 31.3461 20.0568C31.3652 20.1901 31.4287 20.2536 31.5684 20.2727C31.619 20.278 31.6699 20.2801 31.7207 20.279H32.7049C32.7683 20.279 32.8318 20.2727 32.8953 20.2663C32.9467 20.2622 32.9946 20.2391 33.0298 20.2016C33.0651 20.164 33.085 20.1147 33.0858 20.0632C33.0964 19.9619 33.1006 19.8602 33.0985 19.7584C33.0922 19.2632 33.0922 18.7552 33.0922 18.2537ZM41.8031 33.0344V35.536C41.801 35.6504 41.8053 35.7649 41.8158 35.8788C41.8158 35.9044 41.821 35.9297 41.8309 35.9532C41.8409 35.9768 41.8555 35.998 41.8739 36.0158C41.8922 36.0336 41.914 36.0475 41.9378 36.0567C41.9617 36.0659 41.9871 36.0702 42.0127 36.0693C42.1651 36.082 42.3174 36.082 42.4635 36.082C42.9269 36.082 42.9523 36.0503 42.9523 35.5868V30.5075C42.9544 30.4057 42.9502 30.3039 42.9396 30.2027C42.9397 30.1772 42.9345 30.1519 42.9246 30.1283C42.9146 30.1048 42.9 30.0835 42.8816 30.0657C42.8633 30.048 42.8415 30.0341 42.8177 30.0249C42.7938 30.0157 42.7684 30.0114 42.7428 30.0122C42.5904 29.9995 42.4381 29.9995 42.292 29.9995C41.8285 29.9995 41.8031 30.0249 41.8031 30.4948C41.7968 31.3392 41.8031 32.19 41.8031 33.0344ZM18.832 35.2122V32.7106C18.832 32.5963 18.832 32.482 18.8257 32.3678C18.813 32.2217 18.7558 32.1455 18.6225 32.1392C18.3835 32.1265 18.144 32.1265 17.9051 32.1392C17.8529 32.1378 17.8024 32.157 17.7643 32.1927C17.7263 32.2284 17.7039 32.2776 17.7019 32.3297C17.6892 32.4308 17.6829 32.5325 17.6828 32.6344V37.6756C17.6807 37.7774 17.685 37.8792 17.6955 37.9804C17.6975 38.0381 17.7217 38.0928 17.7632 38.1331C17.8046 38.1733 17.86 38.196 17.9177 38.1963C18.0574 38.209 18.1971 38.209 18.3304 38.209C18.7939 38.209 18.8257 38.1772 18.8257 37.7137C18.832 36.882 18.832 36.0439 18.832 35.2122ZM41.5111 35.1741V32.7043C41.5111 32.6027 41.5111 32.5011 41.5047 32.3995C41.4857 32.209 41.4286 32.1455 41.2508 32.1328C41.1111 32.1201 40.9714 32.1265 40.8317 32.1265C40.3936 32.1328 40.3619 32.1582 40.3555 32.6027V37.6883C40.3534 37.7774 40.3577 37.8665 40.3682 37.955C40.3873 38.0947 40.4444 38.1772 40.5778 38.1836C40.819 38.1963 41.054 38.1899 41.2952 38.1836C41.3476 38.1808 41.3971 38.1584 41.4336 38.1207C41.4701 38.083 41.491 38.0329 41.492 37.9804C41.5026 37.8664 41.5069 37.752 41.5047 37.6375C41.5174 36.8185 41.5111 35.9931 41.5111 35.1741ZM25.8097 41.6375V40.5391C25.8097 40.4502 25.8097 40.3613 25.8034 40.2724C25.7843 40.0946 25.7272 40.0375 25.5367 40.0185C25.4605 40.0121 25.3843 40.0121 25.3081 40.0121H24.1716C23.7018 40.0121 23.6764 40.0375 23.6764 40.501V42.6978C23.6762 42.7976 23.6826 42.8973 23.6955 42.9962C23.7 43.0469 23.7222 43.0943 23.7582 43.1303C23.7941 43.1663 23.8416 43.1885 23.8923 43.193C23.9428 43.2004 23.9936 43.2046 24.0447 43.2057H25.4415C25.4798 43.2046 25.5181 43.2004 25.5557 43.193C25.7145 43.1676 25.778 43.1041 25.797 42.9518C25.8076 42.8633 25.8118 42.7742 25.8097 42.6851V41.6375ZM33.3842 41.574C33.3906 42.0184 33.3842 42.4565 33.3906 42.901C33.3969 43.1232 33.4731 43.1867 33.689 43.2121C33.7525 43.2184 33.816 43.2184 33.8794 43.2184C34.2604 43.2184 34.635 43.2248 35.0159 43.2184C35.4667 43.2121 35.5112 43.1676 35.5112 42.7105V40.5073C35.5112 40.4312 35.5112 40.355 35.5048 40.2788C35.4858 40.0946 35.4286 40.0248 35.2445 40.0248C34.7112 40.0185 34.1842 40.0185 33.6509 40.0248C33.4668 40.0248 33.4096 40.101 33.3906 40.2851C33.3842 40.3613 33.3842 40.4375 33.3842 40.5137V41.574ZM33.3969 30.3678V28.971C33.3969 28.8694 33.3969 28.7678 33.3906 28.6662C33.3779 28.5075 33.3144 28.4313 33.1556 28.425C32.743 28.4186 32.3239 28.4186 31.9112 28.425C31.7525 28.4313 31.6826 28.5075 31.6636 28.6599C31.653 28.7484 31.6488 28.8375 31.6509 28.9265V31.8027C31.6488 31.8918 31.653 31.9809 31.6636 32.0694C31.6826 32.209 31.7461 32.2789 31.8858 32.2852C32.3112 32.2916 32.7429 32.2916 33.1683 32.2852C33.3207 32.2789 33.3779 32.2027 33.3969 32.0376C33.4033 31.936 33.4033 31.8344 33.4033 31.7329C33.3969 31.2757 33.3969 30.8249 33.3969 30.3678ZM27.5494 30.3741V30.1075C27.5494 29.6757 27.5557 29.2503 27.5494 28.8186C27.543 28.4821 27.4795 28.425 27.143 28.4186C26.8764 28.4123 26.6097 28.4123 26.3494 28.4186C25.8351 28.425 25.8034 28.4504 25.8034 28.9519V31.7963C25.8034 31.8598 25.8034 31.9233 25.8097 31.9868C25.8288 32.2217 25.8795 32.2789 26.1018 32.2979C26.1524 32.3032 26.2033 32.3053 26.2541 32.3043C26.5462 32.3043 26.8383 32.3106 27.124 32.3043C27.5113 32.2979 27.5557 32.2598 27.5557 31.8662C27.5494 31.3583 27.5494 30.8694 27.5494 30.3741ZM25.9494 19.7267V18.4378C25.9525 18.3358 25.9462 18.2338 25.9303 18.133C25.9287 18.0819 25.9072 18.0335 25.8705 17.9979C25.8338 17.9624 25.7846 17.9425 25.7335 17.9426C25.6578 17.932 25.5814 17.9278 25.505 17.9299H24.6732C24.1716 17.9299 24.1335 17.968 24.1335 18.4695V21.0473C24.1323 21.16 24.1408 21.2726 24.1589 21.3838C24.1644 21.4284 24.1851 21.4698 24.2175 21.501C24.2498 21.5322 24.2919 21.5513 24.3367 21.5552C24.4122 21.5679 24.4887 21.5742 24.5653 21.5743C24.8827 21.5743 25.2002 21.5806 25.5113 21.5743C25.8922 21.5679 25.943 21.5171 25.9494 21.1235C25.9557 20.6663 25.9494 20.1965 25.9494 19.7267ZM35.0604 19.7584V18.4314C35.0604 18.3296 35.054 18.2278 35.0413 18.1267C35.0385 18.0815 35.0197 18.0388 34.9883 18.0063C34.9569 17.9737 34.9149 17.9533 34.8699 17.9489C34.7816 17.9363 34.6925 17.9299 34.6032 17.9299H33.7715C33.3271 17.9362 33.3017 17.9616 33.3017 18.406V21.0981C33.3017 21.1743 33.3017 21.2505 33.308 21.3266C33.3271 21.4917 33.3842 21.5616 33.5429 21.5679C33.962 21.5806 34.3747 21.5806 34.7937 21.5679C34.9778 21.5616 35.035 21.4917 35.054 21.3076C35.0604 21.2314 35.0604 21.1552 35.0604 21.079V19.7584ZM19.2828 13.4601V11.949C19.2828 11.8474 19.2828 11.7458 19.2765 11.6442C19.2574 11.4855 19.2003 11.422 19.0352 11.4093C18.8193 11.3966 18.6098 11.3966 18.3939 11.403C17.9304 11.403 17.9114 11.4284 17.9051 11.9045V14.9331C17.9051 15.022 17.9051 15.1109 17.9114 15.1997C17.9304 15.3585 17.9876 15.4283 18.1527 15.4347C18.4447 15.4474 18.7304 15.4474 19.0225 15.4347C19.2066 15.4283 19.2638 15.3585 19.2765 15.1743C19.2828 15.0728 19.2828 14.9712 19.2828 14.8696C19.2892 14.3934 19.2828 13.9236 19.2828 13.4601ZM41.2889 13.4537V11.9426C41.2889 11.8411 41.2889 11.7395 41.2825 11.6379C41.2635 11.4792 41.2063 11.4093 41.0413 11.403C40.7492 11.3903 40.4635 11.3903 40.1714 11.403C40.0063 11.4093 39.9429 11.4792 39.9238 11.6315C39.9132 11.72 39.909 11.8091 39.9111 11.8982V14.9267C39.9111 15.0156 39.9111 15.1045 39.9175 15.1934C39.9365 15.3521 39.9936 15.422 40.1587 15.4283C40.4381 15.441 40.7111 15.441 40.9905 15.4347C41.2127 15.4283 41.2698 15.3585 41.2825 15.1299C41.2889 15.041 41.2889 14.9521 41.2889 14.8632V13.4537ZM31.0414 20.0187V18.6918C31.0435 18.59 31.0393 18.4882 31.0287 18.387C31.016 18.2664 30.9588 18.1838 30.8446 18.1838C30.5271 18.1711 30.216 18.1775 29.8985 18.1838C29.8464 18.1859 29.7968 18.2071 29.7593 18.2434C29.7219 18.2797 29.6991 18.3286 29.6954 18.3807C29.6827 18.4945 29.6763 18.609 29.6763 18.7235V21.3457C29.6763 21.4219 29.6763 21.4981 29.6827 21.5743C29.7017 21.8028 29.7652 21.8727 29.9811 21.8854C30.2477 21.8981 30.5144 21.8981 30.7747 21.8854C30.9588 21.879 31.016 21.8092 31.035 21.6251C31.0414 21.5362 31.0414 21.4473 31.0414 21.3584V20.0187ZM28.1525 20.0251V21.352C28.1504 21.4538 28.1547 21.5556 28.1652 21.6568C28.1843 21.7901 28.2541 21.8663 28.3875 21.8727C28.6922 21.8854 28.9906 21.879 29.2954 21.8663C29.3468 21.864 29.3956 21.8425 29.432 21.8061C29.4684 21.7697 29.4899 21.7209 29.4922 21.6695C29.5047 21.5705 29.511 21.4709 29.5112 21.3711V18.6854C29.5134 18.5963 29.5091 18.5072 29.4985 18.4187C29.4795 18.2664 29.4097 18.1902 29.2509 18.1838C28.9716 18.1711 28.6986 18.1711 28.4192 18.1838C28.2414 18.1902 28.1716 18.2664 28.1525 18.4441C28.142 18.5454 28.1377 18.6471 28.1398 18.7489C28.1525 19.1679 28.1525 19.5933 28.1525 20.0251ZM26.4002 40.8502C26.4002 41.0534 26.3938 41.2565 26.4002 41.4534C26.3981 41.5678 26.4023 41.6822 26.4129 41.7962C26.4256 41.9359 26.4954 41.993 26.6351 42.0121C26.7113 42.0184 26.7875 42.0184 26.8637 42.0184H27.9621C28.1017 42.0184 28.2414 42.0184 28.3748 42.0121C28.5398 41.9994 28.6033 41.9359 28.616 41.7772C28.6287 41.574 28.6287 41.3772 28.6287 41.174C28.6287 40.7931 28.6351 40.4185 28.6224 40.0375C28.616 39.7899 28.5589 39.7264 28.2986 39.72C27.7716 39.7137 27.2383 39.7137 26.7113 39.72C26.4827 39.7264 26.4192 39.7899 26.4129 40.0185C26.3938 40.2978 26.4002 40.5772 26.4002 40.8502ZM32.7937 40.8629C32.7874 40.5581 32.7937 40.2597 32.7874 39.955C32.781 39.8089 32.7176 39.7518 32.5779 39.7264C32.5022 39.7158 32.4257 39.7116 32.3493 39.7137H31.0604C30.9969 39.7137 30.9335 39.7137 30.87 39.72C30.6731 39.7391 30.6096 39.8026 30.5843 40.0058C30.5779 40.0692 30.5779 40.1327 30.5779 40.1962V41.5613C30.5758 41.6377 30.58 41.7142 30.5906 41.7899C30.6096 41.9422 30.6795 42.0121 30.8446 42.0121C31.3969 42.0184 31.9557 42.0184 32.508 42.0121C32.7176 42.0121 32.781 41.9422 32.7874 41.7327C32.8001 41.447 32.7937 41.1549 32.7937 40.8629ZM52.4379 19.9108V21.1616C52.4379 21.2505 52.4379 21.3393 52.4443 21.4282C52.4633 21.6314 52.5268 21.7012 52.7236 21.7203C52.8885 21.7319 53.0538 21.734 53.2189 21.7266C53.6887 21.7203 53.7268 21.6885 53.7268 21.1997V18.6981C53.7268 18.6219 53.7268 18.5457 53.7205 18.4695C53.7014 18.2664 53.6379 18.1965 53.4411 18.1775C53.253 18.1659 53.0644 18.1638 52.876 18.1711C52.5014 18.1775 52.4443 18.2346 52.4443 18.6219C52.4316 19.0537 52.4379 19.479 52.4379 19.9108ZM6.75599 19.9425V18.6918C6.75914 18.5898 6.75277 18.4878 6.73694 18.387C6.73678 18.3348 6.71599 18.2849 6.67911 18.248C6.64224 18.2111 6.59227 18.1903 6.54012 18.1902C6.27981 18.1838 6.01314 18.1838 5.74648 18.1965C5.6068 18.2029 5.52426 18.3108 5.50521 18.4505C5.48311 18.5742 5.47037 18.6994 5.46712 18.8251C5.46077 19.5679 5.46077 20.3171 5.46712 21.06C5.47148 21.2114 5.48847 21.3622 5.51791 21.5108C5.52214 21.5689 5.54926 21.6229 5.59331 21.661C5.63736 21.6991 5.69474 21.7181 5.75283 21.7139C5.9941 21.7203 6.23536 21.7266 6.47028 21.7139C6.66076 21.7012 6.72425 21.625 6.74329 21.4219C6.74964 21.333 6.74964 21.2441 6.74964 21.1552C6.75599 20.7552 6.75599 20.3489 6.75599 19.9425ZM19.0352 37.6185V39.1359C19.0352 39.6502 19.0542 39.6629 19.5749 39.6629C20.0955 39.6629 20.1145 39.6502 20.1145 39.1359V36.1074C20.1167 36.0056 20.1124 35.9039 20.1018 35.8026C20.0828 35.6503 20.013 35.5804 19.8542 35.5677C19.7146 35.555 19.5749 35.555 19.4415 35.555C19.0987 35.5614 19.0479 35.6058 19.0415 35.955C19.0288 36.5074 19.0352 37.0661 19.0352 37.6185ZM39.1429 37.5994V39.155C39.1408 39.2567 39.145 39.3585 39.1556 39.4597C39.1551 39.4857 39.1599 39.5115 39.1697 39.5356C39.1794 39.5596 39.1939 39.5815 39.2123 39.5999C39.2306 39.6182 39.2525 39.6327 39.2766 39.6425C39.3006 39.6522 39.3264 39.657 39.3524 39.6566C39.566 39.6693 39.7801 39.6693 39.9936 39.6566C40.0458 39.6579 40.0963 39.6387 40.1344 39.603C40.1724 39.5674 40.1948 39.5182 40.1968 39.4661C40.2095 39.365 40.2158 39.2632 40.2159 39.1613V36.0947C40.218 35.9929 40.2137 35.8912 40.2032 35.7899C40.2014 35.7316 40.1774 35.6761 40.1361 35.6347C40.0948 35.5934 40.0393 35.5695 39.981 35.5677C39.7778 35.555 39.5746 35.555 39.3778 35.5614C39.2381 35.5677 39.1746 35.6439 39.1556 35.7772C39.145 35.8785 39.1408 35.9803 39.1429 36.082V37.5994ZM22.3748 36.9074C22.6161 36.9074 22.8574 36.9137 23.0923 36.901C23.2701 36.8947 23.3336 36.8185 23.3589 36.6407C23.3716 36.5518 23.3653 36.4629 23.3716 36.3741V35.6566C23.3716 35.5296 23.3716 35.4026 23.3589 35.2757C23.3399 35.0979 23.2701 35.028 23.0923 35.0154C22.9399 35.0027 22.7875 35.009 22.6351 35.009C22.3177 35.009 22.0002 35.0027 21.6891 35.0154C21.486 35.0217 21.4161 35.0852 21.4098 35.2947C21.4034 35.7391 21.4034 36.1772 21.4098 36.6217C21.4161 36.8248 21.4923 36.8947 21.6955 36.9074C21.9177 36.9201 22.1463 36.9074 22.3748 36.9074ZM35.8858 35.9741C35.8794 36.1899 35.8731 36.3995 35.8794 36.6153C35.8858 36.8312 35.9429 36.901 36.1461 36.9074C36.5969 36.9201 37.054 36.9201 37.5048 36.9074C37.708 36.901 37.7842 36.8248 37.7905 36.628C37.7969 36.1772 37.7969 35.7201 37.7905 35.2693C37.7842 35.0915 37.7143 35.0217 37.5238 35.0217C37.1492 35.009 36.7683 35.0154 36.3937 35.0154C36.3048 35.0154 36.2159 35.0153 36.127 35.0217C35.962 35.0407 35.8985 35.0979 35.8858 35.2566C35.8794 35.4915 35.8858 35.7328 35.8858 35.9741Z" fill="white"/>
<path d="M13.1543 11.7078H16.8685C16.9828 11.7078 17.0971 11.7078 17.2114 11.7142C17.3701 11.7269 17.4273 11.7904 17.4463 11.9554C17.4527 12.0443 17.4527 12.1332 17.4527 12.2221V15.4475C17.4548 15.5492 17.4505 15.651 17.44 15.7522C17.4376 15.8037 17.4162 15.8524 17.3797 15.8888C17.3433 15.9252 17.2946 15.9467 17.2431 15.949C17.1419 15.9596 17.0401 15.9638 16.9384 15.9617H9.38928C8.875 15.9617 8.8623 15.9427 8.8623 15.4221V12.1967C8.8623 11.7269 8.8877 11.7015 9.35754 11.7015C10.6274 11.7078 11.8908 11.7078 13.1543 11.7078Z" fill="#009C59"/>
<path d="M46.0581 15.9616H42.382C42.255 15.9616 42.128 15.9616 42.001 15.9489C41.8233 15.9299 41.7598 15.86 41.7407 15.6822C41.7344 15.6061 41.7344 15.5299 41.7344 15.4537V12.1902C41.7344 11.7394 41.7788 11.7013 42.2423 11.7013H49.8232C49.9251 11.6982 50.0271 11.7046 50.1279 11.7204C50.1797 11.7233 50.2283 11.7461 50.2638 11.7839C50.2992 11.8217 50.3188 11.8717 50.3184 11.9236C50.329 12.0248 50.3332 12.1266 50.3311 12.2283V15.4537C50.3311 15.5426 50.3311 15.6314 50.3247 15.7203C50.3057 15.8791 50.2485 15.9426 50.0835 15.9553C49.9695 15.9658 49.855 15.9701 49.7406 15.968C48.5089 15.9616 47.2835 15.9616 46.0581 15.9616Z" fill="#009C59"/>
<path d="M6.66605 7.09195V3.8285C6.66394 3.71407 6.66818 3.59961 6.67875 3.48565C6.69145 3.36502 6.75494 3.30787 6.87557 3.28883C6.96405 3.27827 7.05316 3.27402 7.14224 3.27613H9.79617C10.2914 3.27613 10.3295 3.31422 10.3295 3.82215V10.3427C10.3295 10.857 10.3168 10.8697 9.78982 10.8697H7.21208C7.09746 10.8728 6.98278 10.8665 6.86923 10.8506C6.74859 10.8379 6.69145 10.7744 6.67875 10.6475C6.66818 10.5335 6.66394 10.419 6.66605 10.3046V7.09195Z" fill="#009C59"/>
<path d="M52.5282 7.07925V10.3427C52.5282 10.857 52.5091 10.876 51.9949 10.876H49.379C48.9219 10.876 48.8711 10.8316 48.8711 10.3808V3.7777C48.8711 3.32692 48.9155 3.28882 49.379 3.28247H52.033C52.4964 3.28247 52.5282 3.31422 52.5282 3.7777V7.07925Z" fill="#009C59"/>
<path d="M24.8194 12.2157V15.9681C24.8194 16.4823 24.8067 16.495 24.2861 16.495H22.5401C22.3052 16.4823 22.2481 16.4252 22.229 16.203C22.2227 16.1014 22.2227 15.9998 22.2227 15.8982V8.50148C22.2227 8.3618 22.229 8.22212 22.2417 8.08879C22.2459 8.04476 22.2653 8.00356 22.2966 7.97228C22.3279 7.941 22.3691 7.92159 22.4131 7.91736C22.4888 7.90681 22.5653 7.90256 22.6417 7.90467H24.502C24.7369 7.92371 24.7941 7.97451 24.8131 8.19673C24.8194 8.31101 24.8194 8.4253 24.8194 8.53958V12.2157Z" fill="#01CD78"/>
<path d="M36.9659 12.2158V15.9681C36.9659 16.4824 36.9532 16.4951 36.4326 16.4951H34.6866C34.4517 16.4824 34.3945 16.4252 34.3755 16.203C34.3691 16.1141 34.3691 16.0253 34.3691 15.9364V8.50154C34.3691 8.37456 34.3691 8.24758 34.3818 8.1206C34.3945 7.98092 34.4644 7.91742 34.6041 7.90473C34.6802 7.89838 34.7564 7.89838 34.8326 7.89838H36.5405C36.9151 7.90473 36.9596 7.94282 36.9659 8.30472V12.2158Z" fill="#01CD78"/>
<path d="M21.6391 30.2853V34.2662C21.6391 34.3932 21.6391 34.5202 21.6264 34.6472C21.6268 34.699 21.6073 34.749 21.5718 34.7868C21.5364 34.8247 21.4877 34.8474 21.4359 34.8503C21.3983 34.8577 21.36 34.8619 21.3217 34.863H20.0709C20.0197 34.8598 19.9689 34.8534 19.9185 34.844C19.8747 34.8364 19.8345 34.8151 19.8037 34.7831C19.7729 34.7512 19.753 34.7102 19.7471 34.6662C19.7346 34.5672 19.7282 34.4676 19.728 34.3678V26.1774C19.728 25.7076 19.7598 25.6822 20.2169 25.6758H21.1629C21.2391 25.6758 21.3153 25.6758 21.3915 25.6822C21.5502 25.7012 21.6074 25.7584 21.6264 25.9298C21.6349 26.0439 21.637 26.1583 21.6328 26.2727C21.6391 27.606 21.6412 28.9435 21.6391 30.2853Z" fill="#01CD78"/>
<path d="M37.561 30.2727V26.2473C37.5579 26.1201 37.5642 25.9927 37.5801 25.8664C37.5928 25.7458 37.6563 25.6886 37.7769 25.6696C37.8526 25.659 37.9291 25.6548 38.0055 25.6569H39.0277C39.1041 25.6548 39.1805 25.659 39.2563 25.6696C39.308 25.6726 39.3565 25.6954 39.3919 25.7332C39.4274 25.771 39.447 25.8209 39.4467 25.8727C39.4573 25.974 39.4615 26.0757 39.4594 26.1775V34.298C39.4594 34.4126 39.4531 34.527 39.4404 34.6409C39.435 34.6919 39.4127 34.7396 39.377 34.7764C39.3414 34.8133 39.2944 34.8371 39.2436 34.844C39.1932 34.8535 39.1423 34.8599 39.0912 34.8631H37.9166C37.8782 34.862 37.84 34.8578 37.8023 34.8504C37.6499 34.825 37.5864 34.7615 37.5674 34.5964C37.5547 34.4694 37.5547 34.3425 37.5547 34.2155C37.561 32.9076 37.5632 31.5933 37.561 30.2727Z" fill="#01CD78"/>
<path d="M36.3492 40.6789V37.7583C36.3492 37.2568 36.3873 37.225 36.8888 37.225H38.2158C38.292 37.225 38.3682 37.225 38.4444 37.2314C38.6285 37.2504 38.6857 37.3075 38.7047 37.4917C38.711 37.5806 38.711 37.6694 38.711 37.7583V43.5233C38.7132 43.6378 38.7089 43.7522 38.6983 43.8662C38.6857 43.9868 38.6222 44.044 38.5015 44.063C38.438 44.0694 38.3745 44.0757 38.3111 44.0757H36.7555C36.6789 44.0757 36.6025 44.0693 36.5269 44.0567C36.4891 44.0522 36.4538 44.0355 36.4263 44.0092C36.3988 43.9828 36.3807 43.9482 36.3746 43.9106C36.3568 43.7866 36.3484 43.6614 36.3492 43.536V40.6789Z" fill="#009C59"/>
<path d="M20.4893 40.6281V37.7837C20.4893 37.244 20.5147 37.2186 21.0353 37.2186C21.4924 37.2186 21.9432 37.2123 22.4003 37.2186C22.7876 37.225 22.8321 37.2758 22.8448 37.6567V43.5296C22.8448 44.0503 22.8321 44.063 22.3178 44.063H21.0289C20.9527 44.063 20.8766 44.063 20.8004 44.0566C20.5654 44.0439 20.5083 43.9868 20.4893 43.7646C20.4829 43.663 20.4829 43.5614 20.4829 43.4598C20.4893 42.5201 20.4893 41.5741 20.4893 40.6281Z" fill="#009C59"/>
<path d="M45.377 20.3998V17.0601C45.3749 16.9457 45.3791 16.8312 45.3897 16.7173C45.4087 16.5586 45.4722 16.4887 45.6373 16.4887C46.1198 16.4824 46.596 16.4824 47.0786 16.4887C47.25 16.4951 47.3198 16.5712 47.3389 16.7554C47.3494 16.8566 47.3537 16.9584 47.3516 17.0601V23.8092C47.3516 24.3616 47.3262 24.387 46.7801 24.387H45.9103C45.8341 24.387 45.7579 24.387 45.6817 24.3807C45.4595 24.3616 45.4024 24.3045 45.3897 24.0696C45.3833 23.968 45.3833 23.8664 45.3833 23.7648C45.377 22.6537 45.377 21.5299 45.377 20.3998Z" fill="#01CD78"/>
<path d="M5.76483 5.00955V7.09841C5.76694 7.21284 5.7627 7.3273 5.75213 7.44127C5.73308 7.59999 5.66324 7.65714 5.50451 7.68253C5.42881 7.69309 5.35235 7.69733 5.27594 7.69523H3.34581C2.90137 7.69523 2.87598 7.66348 2.87598 7.21905V2.8572C2.87598 2.39371 2.90137 2.36832 3.37121 2.36832H5.30134C5.72038 2.36832 5.75848 2.40641 5.75848 2.8191C5.76483 3.5429 5.76483 4.27305 5.76483 5.00955Z" fill="#009C59"/>
<path d="M13.8149 20.4379V24.0442C13.8022 24.3299 13.7514 24.3871 13.4848 24.3934C13.0657 24.3998 12.653 24.3934 12.234 24.3934C12.1826 24.3933 12.1314 24.3869 12.0816 24.3744C12.0367 24.3683 11.9954 24.3465 11.9651 24.3127C11.9349 24.279 11.9177 24.2355 11.9165 24.1902C11.906 24.089 11.9017 23.9872 11.9038 23.8855V16.8316C11.9165 16.5459 11.961 16.4887 12.234 16.4824C12.653 16.476 13.0657 16.476 13.4848 16.4824C13.7451 16.4887 13.7959 16.5459 13.8149 16.7935C13.8213 16.8951 13.8213 16.9967 13.8213 17.0983C13.8149 18.2157 13.8149 19.3268 13.8149 20.4379Z" fill="#01CD78"/>
<path d="M56.317 5.04115V7.2062C56.317 7.65699 56.2852 7.68239 55.8471 7.68874C55.2122 7.69509 54.5836 7.68874 53.9487 7.68874H53.8725C53.5297 7.67604 53.4789 7.63159 53.4789 7.28239C53.4725 5.99352 53.4789 4.6983 53.4789 3.40943V2.79991C53.4768 2.7235 53.481 2.64705 53.4916 2.57134C53.4935 2.52019 53.5138 2.47145 53.5488 2.43411C53.5838 2.39677 53.6311 2.37335 53.6821 2.36817C53.7705 2.35761 53.8597 2.35337 53.9487 2.35547H55.9233C56.2662 2.36817 56.3106 2.40627 56.317 2.76182C56.3233 3.52371 56.317 4.27926 56.317 5.04115Z" fill="#009C59"/>
<path d="M34.5265 24.9203V27.0409C34.5265 27.4663 34.4885 27.4981 34.0758 27.5044C33.4091 27.5108 32.7361 27.5108 32.0694 27.5044C31.6758 27.5044 31.6377 27.46 31.6377 27.0663V22.7426C31.6504 22.4124 31.7075 22.3489 32.0504 22.3426C32.7424 22.3362 33.4408 22.3426 34.1329 22.3426C34.1969 22.3426 34.2607 22.349 34.3234 22.3616C34.3742 22.3686 34.4212 22.3924 34.4569 22.4292C34.4925 22.4661 34.5148 22.5138 34.5202 22.5648C34.5308 22.6788 34.535 22.7932 34.5329 22.9076C34.5329 23.5807 34.5265 24.2537 34.5265 24.9203Z" fill="#01CD78"/>
<path d="M27.5572 24.9457V27.0282C27.5572 27.4726 27.5255 27.5044 27.0874 27.5044C26.4461 27.5044 25.7985 27.5107 25.1572 27.5044C24.7191 27.5044 24.6683 27.4536 24.6683 27.0282C24.662 25.625 24.6683 24.2219 24.6683 22.8187C24.6683 22.3933 24.7191 22.3425 25.1509 22.3425C25.8048 22.3362 26.4651 22.3362 27.1191 22.3425C27.5128 22.3425 27.5572 22.387 27.5572 22.7806V24.9457Z" fill="#01CD78"/>
<path d="M42.9395 20.2728V17.3141C42.9395 16.7935 42.9522 16.7808 43.4728 16.7808H44.5331C44.622 16.7808 44.7109 16.7871 44.7997 16.7935C44.8449 16.7963 44.8876 16.8151 44.9202 16.8465C44.9528 16.8779 44.9731 16.9199 44.9775 16.9649C44.9932 17.1019 44.9996 17.2398 44.9966 17.3776V23.3331C44.9987 23.4095 44.9944 23.4859 44.9839 23.5617C44.9648 23.7013 44.9013 23.7648 44.768 23.7839C44.7174 23.7892 44.6665 23.7913 44.6156 23.7902H43.3267C43.2633 23.7902 43.1998 23.7839 43.1363 23.7775C43.0911 23.7747 43.0484 23.7559 43.0158 23.7245C42.9833 23.6931 42.9629 23.6511 42.9585 23.6061C42.9458 23.4791 42.9395 23.3521 42.9395 23.2315V20.2728Z" fill="#01CD78"/>
<path d="M14.2539 20.2537V17.3712C14.2518 17.2568 14.2561 17.1423 14.2666 17.0283C14.2793 16.8696 14.3428 16.8061 14.5079 16.7934C14.7238 16.7807 14.9396 16.7871 15.1492 16.7871C15.4539 16.7871 15.7587 16.7871 16.0571 16.7934C16.2158 16.7998 16.2793 16.8696 16.2984 17.0283C16.3089 17.1296 16.3132 17.2314 16.3111 17.3331V23.2505C16.3142 23.3651 16.3078 23.4798 16.292 23.5933C16.2904 23.6444 16.2689 23.6929 16.2322 23.7284C16.1954 23.764 16.1463 23.7838 16.0952 23.7838C16.0317 23.7902 15.9682 23.7965 15.9047 23.7965H14.6539C14.5902 23.7986 14.5264 23.7944 14.4635 23.7838C14.3428 23.7648 14.2793 23.7076 14.2666 23.5933C14.2539 23.4664 14.2539 23.3394 14.2539 23.2124V20.2537Z" fill="#01CD78"/>
<path d="M31.1994 28.1456V32.1265C31.1994 32.6472 31.1803 32.6599 30.6724 32.6599C30.4438 32.6599 30.2153 32.6662 29.993 32.6535C29.7708 32.6408 29.701 32.571 29.6819 32.3551C29.6756 32.2535 29.6756 32.1519 29.6756 32.0503V24.1965C29.6724 24.0692 29.6788 23.9419 29.6946 23.8155C29.6942 23.7896 29.699 23.7638 29.7087 23.7397C29.7185 23.7156 29.733 23.6938 29.7513 23.6754C29.7697 23.657 29.7916 23.6426 29.8156 23.6328C29.8397 23.6231 29.8655 23.6183 29.8915 23.6187C30.2597 23.6124 30.6216 23.6124 30.9899 23.6187C31.1232 23.6251 31.1803 23.7013 31.193 23.8473C31.2057 23.9743 31.1994 24.1012 31.2057 24.2282C31.1994 25.5425 31.1994 26.8441 31.1994 28.1456Z" fill="#01CD78"/>
<path d="M27.9935 28.1075V24.2028C27.9903 24.0755 27.9967 23.9482 28.0125 23.8218C28.0252 23.7012 28.0887 23.6313 28.2093 23.6313C28.5776 23.625 28.9395 23.625 29.3077 23.6313C29.4284 23.6313 29.4855 23.7075 29.5046 23.8282C29.5172 23.9293 29.5236 24.031 29.5236 24.1329V32.1392C29.5236 32.6408 29.4919 32.6725 28.9776 32.6725C28.7363 32.6725 28.495 32.6788 28.2601 32.6661C28.076 32.6535 28.0189 32.59 28.0062 32.4058C27.9998 32.2915 27.9998 32.1773 27.9998 32.063C27.9935 30.736 27.9935 29.4217 27.9935 28.1075Z" fill="#01CD78"/>
<path d="M37.2567 11.8983V9.54912C37.2567 9.44753 37.2567 9.34594 37.2631 9.24436C37.2821 9.04119 37.3393 8.98404 37.5488 8.97135C37.6123 8.965 37.6758 8.965 37.7393 8.965H39.0662C39.1297 8.965 39.1932 8.965 39.2567 8.97135C39.4599 8.99039 39.5107 9.04754 39.5297 9.25706C39.535 9.30767 39.5371 9.35856 39.5361 9.40943V14.3364C39.5361 14.7617 39.4853 14.8125 39.0535 14.8125C38.6091 14.8189 38.171 14.8125 37.7266 14.8125H37.6504C37.3329 14.7998 37.2758 14.7363 37.2567 14.4316C37.2504 14.33 37.2567 14.2284 37.2567 14.1268V11.8983Z" fill="#01CD78"/>
<path d="M19.7144 11.8983V9.54915C19.7144 9.44756 19.7144 9.34597 19.7207 9.24439C19.7398 9.04122 19.7969 8.97772 20.0064 8.97138C20.5461 8.96503 21.0921 8.96503 21.6318 8.97138C21.854 8.97772 21.9112 9.04756 21.9302 9.27613C21.9365 9.36502 21.9366 9.45391 21.9366 9.5428V14.2411C21.9366 14.33 21.9365 14.4189 21.9302 14.5078C21.9175 14.7554 21.8604 14.8189 21.6 14.8189C21.0858 14.8253 20.5651 14.8189 20.0509 14.8189C19.9995 14.8188 19.9483 14.8124 19.8985 14.7999C19.8539 14.7944 19.8125 14.7737 19.7813 14.7413C19.7501 14.709 19.7309 14.6669 19.7271 14.6221C19.7144 14.5078 19.7144 14.3935 19.708 14.2792C19.7144 13.492 19.7144 12.6983 19.7144 11.8983Z" fill="#01CD78"/>
<path d="M32.0883 11.6696V8.55853C32.0883 8.08869 32.1137 8.0633 32.5772 8.05695C32.8819 8.05695 33.1867 8.0506 33.4851 8.0633C33.7517 8.06964 33.8152 8.14583 33.8343 8.40615C33.8406 8.50773 33.8406 8.60932 33.8406 8.7109V14.7045C33.8438 14.8444 33.8374 14.9844 33.8216 15.1235C33.8187 15.1815 33.7943 15.2364 33.7533 15.2774C33.7122 15.3185 33.6574 15.3428 33.5994 15.3457C33.4981 15.3563 33.3964 15.3605 33.2946 15.3584C33.0025 15.3584 32.7105 15.3648 32.4248 15.3521C32.1518 15.3457 32.101 15.2886 32.0883 15.0092C32.0819 14.9076 32.0883 14.8061 32.0883 14.7045V11.6696Z" fill="#01CD78"/>
<path d="M9.55668 20.2854V17.2505C9.55668 17.1235 9.56303 16.9966 9.57573 16.8696C9.58108 16.8186 9.60337 16.7708 9.63906 16.734C9.67474 16.6972 9.72174 16.6734 9.77255 16.6664C9.83526 16.6538 9.89906 16.6474 9.96302 16.6474H10.909C10.9472 16.6463 10.9855 16.6484 11.0233 16.6537C11.2138 16.6791 11.2773 16.7426 11.3027 16.9521C11.309 17.0283 11.309 17.1045 11.309 17.1807V23.4028C11.309 23.9044 11.2709 23.9361 10.763 23.9361H10.0456C9.95648 23.9383 9.86737 23.934 9.7789 23.9235C9.64557 23.9044 9.58207 23.8409 9.56938 23.6949C9.55881 23.5809 9.55457 23.4665 9.55668 23.352V20.2854Z" fill="#01CD78"/>
<path d="M47.9414 20.2537V17.1807C47.9414 16.6664 47.9605 16.6537 48.4747 16.6474C48.7541 16.6474 49.0335 16.6411 49.3065 16.6537C49.5604 16.6601 49.6176 16.7172 49.6557 16.9585C49.6789 17.0948 49.6895 17.233 49.6874 17.3712V23.4029C49.6874 23.8981 49.6493 23.9362 49.1414 23.9362H48.3858C48.2966 23.9362 48.2075 23.9298 48.1192 23.9171C48.0742 23.9127 48.0322 23.8924 48.0008 23.8598C47.9693 23.8272 47.9506 23.7845 47.9478 23.7394C47.9351 23.6124 47.9287 23.4854 47.9287 23.3584C47.9414 22.3235 47.9414 21.2886 47.9414 20.2537Z" fill="#01CD78"/>
<path d="M27.105 11.7522V14.8569C27.105 15.3267 27.0796 15.3521 26.6162 15.3585H25.8987C25.8225 15.3585 25.7463 15.3585 25.6701 15.3521C25.5051 15.3331 25.4416 15.2759 25.4225 15.1172C25.4141 15.0286 25.4119 14.9395 25.4162 14.8505V8.55856C25.4162 8.08872 25.4416 8.06333 25.9051 8.05698H26.7749C27.0352 8.07602 27.086 8.12682 27.105 8.37443C27.1114 8.47602 27.1114 8.5776 27.1114 8.67919C27.105 9.70775 27.105 10.73 27.105 11.7522Z" fill="#01CD78"/>
<path d="M33.9865 30.2726V28.4123C33.9865 27.9869 34.0245 27.9551 34.4372 27.9488C34.996 27.9424 35.5483 27.9424 36.1071 27.9488C36.5198 27.9488 36.5705 28.0059 36.5769 28.4059C36.5832 29.6821 36.5832 30.9583 36.5769 32.2345C36.5769 32.6281 36.5325 32.6662 36.1388 32.6725C35.5674 32.6789 35.0023 32.6789 34.4309 32.6725C34.0309 32.6725 33.9928 32.6344 33.9928 32.2408C33.9801 31.5868 33.9865 30.9329 33.9865 30.2726Z" fill="#01CD78"/>
<path d="M31.5678 12.4696V15.3902C31.5678 15.8601 31.5424 15.8855 31.0789 15.8855C30.7995 15.8855 30.5202 15.8918 30.2472 15.8855C29.8916 15.8791 29.8408 15.822 29.8281 15.4537V9.61254C29.8281 9.51096 29.8281 9.40937 29.8345 9.30779C29.8535 9.06017 29.917 8.99033 30.1583 8.97763C30.4503 8.96493 30.7424 8.97128 31.0281 8.97128H31.2186C31.4916 8.99033 31.5551 9.05382 31.5741 9.31414C31.5805 9.41572 31.5805 9.51731 31.5805 9.61889C31.5678 10.5713 31.5678 11.5236 31.5678 12.4696Z" fill="#01CD78"/>
<path d="M29.3659 12.4571V15.3396C29.368 15.454 29.3638 15.5684 29.3532 15.6824C29.3405 15.7967 29.277 15.8538 29.1564 15.8792C29.1314 15.8845 29.1058 15.8866 29.0802 15.8856C28.6993 15.8856 28.3247 15.8919 27.9437 15.8856C27.7215 15.8792 27.6517 15.803 27.6326 15.5872C27.6263 15.4856 27.6263 15.384 27.6263 15.2824V9.5936C27.6231 9.46632 27.6295 9.33898 27.6453 9.21265C27.6644 9.07932 27.7342 9.01583 27.8675 8.99043C27.8926 8.98517 27.9182 8.98304 27.9437 8.98408C28.312 8.98408 28.6739 8.97773 29.0421 8.98408C29.2897 8.99043 29.3469 9.06662 29.3659 9.30789C29.3723 9.40947 29.3723 9.51106 29.3723 9.61265C29.3659 10.5587 29.3659 11.511 29.3659 12.4571Z" fill="#01CD78"/>
<path d="M25.1165 43.5868H26.5197C26.6215 43.5847 26.7232 43.5889 26.8245 43.5995C26.9768 43.6185 27.0467 43.682 27.0721 43.8408C27.0826 43.9165 27.0869 43.9929 27.0848 44.0693C27.0848 44.7614 27.0848 45.4598 27.0784 46.1518C27.0721 46.5899 27.0276 46.6407 26.6022 46.6407C25.6054 46.6471 24.6086 46.6471 23.6118 46.6407C23.1801 46.6407 23.1356 46.5899 23.1293 46.1582C23.1229 45.4534 23.1229 44.7423 23.1293 44.0376C23.1293 43.6376 23.1674 43.5995 23.561 43.5931C24.0816 43.5804 24.6023 43.5868 25.1165 43.5868Z" fill="#009C59"/>
<path d="M37.3343 20.1204V22.3172C37.3343 22.4188 37.3343 22.5204 37.3279 22.6219C37.3089 22.8632 37.2454 22.9331 36.9978 22.9394C36.5216 22.9521 36.0391 22.9458 35.5565 22.9394C35.3343 22.9331 35.2708 22.8632 35.2327 22.6473C35.2169 22.5466 35.2105 22.4445 35.2137 22.3426V17.8347C35.2137 17.3776 35.2581 17.3395 35.7153 17.3331C36.0962 17.3268 36.4708 17.3268 36.8517 17.3331C37.2835 17.3395 37.3343 17.3839 37.3343 17.8093C37.3406 18.5839 37.3343 19.3521 37.3343 20.1204Z" fill="#01CD78"/>
<path d="M25.2072 30.3044V32.2028C25.2072 32.6409 25.1754 32.6727 24.731 32.6727H23.1373C23.0739 32.6727 23.0104 32.6727 22.9469 32.6663C22.7628 32.6473 22.7056 32.5901 22.6866 32.406C22.6802 32.3298 22.6802 32.2536 22.6802 32.1774V28.4251C22.6781 28.336 22.6823 28.2469 22.6929 28.1584C22.6963 28.1074 22.7182 28.0593 22.7544 28.0231C22.7906 27.9869 22.8387 27.965 22.8897 27.9616C22.9782 27.9511 23.0673 27.9468 23.1564 27.9489H24.7119C24.7881 27.9489 24.8643 27.9489 24.9405 27.9553C25.1246 27.9743 25.1881 28.0315 25.2008 28.2156C25.2072 28.3299 25.2072 28.4441 25.2072 28.5584V30.3044Z" fill="#01CD78"/>
<path d="M34.1273 46.6344C33.6321 46.6344 33.1432 46.6407 32.6479 46.6344C32.2162 46.628 32.1654 46.5836 32.1654 46.1582C32.1591 45.4534 32.1591 44.7423 32.1654 44.0376C32.1654 43.6249 32.2035 43.5931 32.6289 43.5931H35.5812C36.0257 43.5931 36.0574 43.6249 36.0574 44.063V46.1836C36.0574 46.5963 36.0193 46.6344 35.6003 46.6407C35.1114 46.6344 34.6162 46.6344 34.1273 46.6344Z" fill="#009C59"/>
<path d="M19.7264 19.0347V16.7935C19.7232 16.6789 19.7296 16.5642 19.7454 16.4506C19.7581 16.33 19.828 16.2792 19.9486 16.2602C19.9994 16.2538 20.0502 16.2538 20.101 16.2475H21.3898C21.4533 16.2475 21.5168 16.2538 21.5803 16.2602C21.6255 16.263 21.6682 16.2818 21.7007 16.3132C21.7333 16.3446 21.7537 16.3866 21.7581 16.4316C21.7707 16.5199 21.7771 16.609 21.7771 16.6983V21.4411C21.7771 21.8537 21.739 21.8855 21.3137 21.8918H20.1772C20.1007 21.8939 20.0243 21.8897 19.9486 21.8791C19.8974 21.8773 19.8487 21.8569 19.8114 21.8219C19.774 21.7869 19.7506 21.7396 19.7454 21.6887C19.7327 21.5748 19.7264 21.4604 19.7264 21.3458C19.7264 20.5776 19.7327 19.8093 19.7264 19.0347Z" fill="#01CD78"/>
<path d="M21.917 20.1394V17.9362C21.9149 17.8218 21.9192 17.7073 21.9297 17.5934C21.9424 17.441 22.0123 17.3712 22.171 17.3458C22.2215 17.3384 22.2724 17.3341 22.3234 17.3331H23.6122C23.6503 17.3331 23.6884 17.3394 23.7265 17.3394C23.8853 17.3648 23.9551 17.4283 23.9741 17.5807C23.9847 17.6692 23.989 17.7583 23.9868 17.8473V22.4378C23.9868 22.8949 23.9424 22.933 23.4853 22.9393C23.117 22.9457 22.7488 22.9393 22.3869 22.9393C22.336 22.9404 22.2851 22.9383 22.2345 22.933C22.0059 22.9139 21.9424 22.8568 21.9297 22.6346C21.9234 22.533 21.9234 22.4314 21.9234 22.3298C21.917 21.606 21.917 20.8695 21.917 20.1394Z" fill="#01CD78"/>
<path d="M39.459 19.0727V21.314C39.4611 21.4284 39.4568 21.5429 39.4463 21.6568C39.4272 21.8156 39.3637 21.8791 39.1986 21.8854C38.8812 21.8981 38.5701 21.8918 38.2526 21.8918C38.1002 21.8918 37.9479 21.8981 37.7955 21.8854C37.5352 21.8727 37.4844 21.8219 37.4653 21.5743C37.459 21.4981 37.459 21.4219 37.459 21.3457V16.7934C37.459 16.7172 37.459 16.641 37.4653 16.5648C37.4844 16.3172 37.5352 16.2601 37.7955 16.2537C38.2399 16.2474 38.678 16.2537 39.1225 16.2537C39.148 16.2527 39.1736 16.2548 39.1986 16.2601C39.3637 16.2791 39.4272 16.3363 39.4463 16.495C39.4568 16.609 39.4611 16.7234 39.459 16.8379V19.0727Z" fill="#01CD78"/>
<path d="M29.518 36.3932V38.7424C29.5212 38.857 29.5148 38.9717 29.499 39.0853C29.4938 39.1362 29.4704 39.1835 29.433 39.2185C29.3957 39.2535 29.3469 39.2739 29.2958 39.2757C29.2708 39.281 29.2452 39.2831 29.2196 39.2821C28.7879 39.2821 28.3625 39.2884 27.9307 39.2821C27.7022 39.2757 27.645 39.2122 27.626 38.9837C27.6196 38.8821 27.6196 38.7805 27.6196 38.6789V34.0504C27.6196 33.9107 27.626 33.771 27.6387 33.6377C27.6436 33.5861 27.6667 33.5379 27.704 33.5018C27.7412 33.4657 27.7901 33.4441 27.8418 33.4409C27.9048 33.4303 27.9686 33.4261 28.0323 33.4282H29.0926C29.1675 33.4269 29.2422 33.4354 29.3148 33.4536C29.3591 33.4601 29.3999 33.481 29.4309 33.5132C29.4619 33.5454 29.4814 33.5869 29.4863 33.6314C29.499 33.7583 29.5117 33.8853 29.5117 34.006C29.518 34.7996 29.518 35.5996 29.518 36.3932Z" fill="#009C59"/>
<path d="M29.7271 36.3107V33.9234C29.7271 33.4599 29.7525 33.4345 30.2223 33.4282H31.1302C31.2067 33.4261 31.2831 33.4303 31.3588 33.4409C31.4794 33.4599 31.5429 33.5171 31.5556 33.6377C31.5662 33.7262 31.5704 33.8153 31.5683 33.9044V38.7996C31.5683 39.2694 31.5429 39.2884 31.0731 39.2948H30.1652C30.0888 39.2969 30.0123 39.2926 29.9366 39.2821C29.816 39.263 29.7525 39.2059 29.7398 39.0853C29.7292 38.9713 29.725 38.8568 29.7271 38.7424V36.3107Z" fill="#009C59"/>
<path d="M34.2983 34.7169H32.1333C31.8539 34.7042 31.7904 34.6534 31.7841 34.3804C31.7777 33.9995 31.7777 33.6185 31.7841 33.2439C31.7904 32.9773 31.8602 32.9201 32.1333 32.9011C32.2221 32.8947 32.311 32.8947 32.3999 32.8947H36.2665C36.3681 32.8947 36.4697 32.8947 36.5713 32.9011C36.7745 32.9201 36.838 32.9836 36.8634 33.1804C36.8697 33.2566 36.8697 33.3328 36.8697 33.409V34.1709C36.8634 34.6915 36.838 34.7169 36.3046 34.7169H34.2983Z" fill="#009C59"/>
<path d="M24.8624 34.7171H22.8561C22.4053 34.7171 22.3799 34.6853 22.3736 34.2472V33.3774C22.3715 33.301 22.3757 33.2245 22.3863 33.1488C22.4053 32.9901 22.4688 32.933 22.6339 32.9076C22.7224 32.897 22.8115 32.8928 22.9005 32.8949H26.9132C27.3767 32.8949 27.4021 32.9266 27.4084 33.3901V34.2218C27.4084 34.298 27.4084 34.3742 27.4021 34.4504C27.383 34.6282 27.3259 34.6917 27.1418 34.7107C27.0404 34.7192 26.9386 34.7213 26.837 34.7171H24.8624Z" fill="#009C59"/>
<path d="M2.21637 1.99365V3.32062C2.21637 3.40951 2.21637 3.4984 2.21002 3.58728C2.19732 3.8222 2.14018 3.89204 1.91796 3.89204C1.37829 3.89839 0.832261 3.89839 0.292585 3.89204C0.0830644 3.89204 0.0195732 3.8222 0.00687498 3.61903C0.000525854 3.53014 0.000525466 3.44125 0.000525466 3.35237V0.546054C-0.00158361 0.444303 0.00265766 0.342519 0.013224 0.241296C0.0259222 0.0952659 0.0894132 0.0190761 0.222745 0.0127269C0.813213 0.00637781 1.41003 0.00637781 2.0005 0.0127269C2.13383 0.0127269 2.19732 0.0952655 2.21002 0.234946C2.21848 0.336301 2.2206 0.438085 2.21637 0.539704V1.99365Z" fill="#009C59"/>
<path d="M59.1944 1.99363C59.1944 2.48251 59.2007 2.97774 59.1944 3.46663C59.188 3.84757 59.1499 3.89202 58.788 3.89202C58.3245 3.89837 57.8547 3.89202 57.3912 3.89202C57.3274 3.89412 57.2636 3.88986 57.2007 3.87932C57.0801 3.86027 57.0166 3.80313 57.0039 3.68885C56.9912 3.58775 56.9849 3.48597 56.9849 3.38409V0.507937C56.9849 0.419049 56.9849 0.330161 56.9912 0.241274C57.0103 0.0825455 57.0738 0.0254036 57.2388 0.00635621C57.3277 7.09027e-06 57.4166 6.7029e-06 57.5055 6.7029e-06H58.6801C58.7818 -0.00210238 58.8836 0.00213842 58.9848 0.0127048C59.0363 0.013489 59.0857 0.0334403 59.1232 0.0686616C59.1608 0.103883 59.1839 0.151844 59.188 0.203178C59.1986 0.304401 59.2028 0.406185 59.2007 0.507937C59.1944 1.00952 59.1944 1.4984 59.1944 1.99363Z" fill="#009C59"/>
<path d="M27.1483 44.209V42.6916C27.1674 42.444 27.2182 42.3868 27.4785 42.3805C28.0182 42.3741 28.5642 42.3805 29.1039 42.3805C29.1421 42.3794 29.1803 42.3815 29.2181 42.3868C29.2693 42.3887 29.318 42.409 29.3554 42.444C29.3927 42.479 29.4161 42.5264 29.4213 42.5773C29.434 42.6784 29.4403 42.7802 29.4404 42.8821V45.5741C29.4404 46.0693 29.4086 46.1011 28.8943 46.1074H27.5293C27.2055 46.0947 27.1547 46.0503 27.1483 45.7265C27.142 45.2185 27.1483 44.7106 27.1483 44.209Z" fill="#009C59"/>
<path d="M32.102 44.2407C32.102 44.7106 32.1083 45.1741 32.102 45.6439C32.0956 46.0502 32.0448 46.101 31.6385 46.1074C31.1877 46.1137 30.7306 46.1074 30.2798 46.1074H30.2036C29.8861 46.0883 29.829 46.0312 29.8163 45.7264C29.8099 45.536 29.8163 45.3455 29.8163 45.1614V42.9646C29.8163 42.8757 29.8163 42.7868 29.8226 42.6979C29.8353 42.4503 29.8925 42.3868 30.1465 42.3868C30.6861 42.3804 31.2322 42.3868 31.7718 42.3868C31.81 42.3857 31.8483 42.3879 31.8861 42.3931C32.0194 42.4122 32.0829 42.4757 32.0956 42.6217C32.1062 42.7229 32.1104 42.8247 32.1083 42.9265C32.102 43.3582 32.102 43.7963 32.102 44.2407Z" fill="#009C59"/>
<path d="M19.4808 24.6282C19.2839 24.5139 19.0935 24.3806 18.8839 24.298C18.5919 24.1774 18.4649 23.9679 18.4205 23.6695C18.3506 23.1298 18.2617 22.5965 18.1792 22.0568C18.1538 21.9044 18.1284 21.7584 18.1094 21.606C18.095 21.5371 18.1073 21.4654 18.1439 21.4053C18.1804 21.3452 18.2384 21.3012 18.3062 21.2822C18.3506 21.2632 18.4014 21.2441 18.4459 21.2251C18.5073 21.1933 18.5772 21.1818 18.6456 21.192C18.714 21.2023 18.7774 21.2338 18.8268 21.2822C19.43 21.7647 20.0331 22.2409 20.6427 22.7171C20.922 22.933 21.195 23.1552 21.4871 23.3647C21.7093 23.5234 21.8426 23.7139 21.8553 23.9933C21.868 24.2091 21.9061 24.4187 21.9125 24.6345C21.9188 24.825 21.849 24.8949 21.6585 24.8758C21.322 24.8504 20.9792 24.806 20.6427 24.7679C20.2617 24.7234 19.8744 24.6726 19.4808 24.6282Z" fill="#009B5A"/>
<path d="M39.7317 24.6282C39.1667 24.6917 38.6016 24.7615 38.0429 24.825C37.8807 24.8451 37.7174 24.8557 37.554 24.8568C37.3889 24.8568 37.3 24.7742 37.3127 24.6282C37.3445 24.3171 37.3953 24.006 37.4524 23.6949C37.4651 23.6187 37.5476 23.5489 37.6111 23.4917C37.7318 23.3838 37.8651 23.2822 37.9921 23.1806C38.7603 22.5838 39.5222 21.9806 40.2905 21.3838C40.3476 21.3394 40.4111 21.2949 40.4746 21.2505C40.51 21.2226 40.552 21.2044 40.5965 21.1978C40.641 21.1911 40.6866 21.1961 40.7285 21.2124C41.1539 21.3584 41.173 21.314 41.1095 21.7521C41.046 22.1902 40.9762 22.6282 40.9063 23.06C40.8682 23.2949 40.8238 23.5298 40.7984 23.7711C40.7938 23.8653 40.7628 23.9564 40.7089 24.0339C40.655 24.1114 40.5804 24.1721 40.4936 24.2092C40.2333 24.3425 39.9857 24.4885 39.7317 24.6282Z" fill="#009B5A"/>
<path d="M7.27539 19.9553V18.095C7.27539 17.9934 7.27539 17.8918 7.28174 17.7902C7.29444 17.5426 7.35158 17.4855 7.61189 17.4791C7.95475 17.4728 8.29125 17.4791 8.6341 17.4791C8.68548 17.4792 8.73666 17.4856 8.78648 17.4982C8.82455 17.5057 8.85924 17.5251 8.8855 17.5536C8.91177 17.5822 8.92824 17.6184 8.93251 17.6569C8.94519 17.7708 8.95154 17.8852 8.95156 17.9998V21.9108C8.95156 22.4188 8.93251 22.4315 8.41188 22.4378C8.13252 22.4378 7.85316 22.4442 7.58015 22.4315C7.35793 22.4251 7.30079 22.3553 7.28174 22.1267C7.27539 22.0251 7.27539 21.9235 7.27539 21.8219V19.9553Z" fill="#01CD78"/>
<path d="M51.911 19.9553V21.9617C51.911 22.3871 51.8729 22.4188 51.4666 22.4252C51.2126 22.4315 50.965 22.4252 50.711 22.4252C50.6239 22.4254 50.5369 22.419 50.4507 22.4061C50.4059 22.4022 50.3638 22.3831 50.3315 22.3519C50.2991 22.3207 50.2785 22.2793 50.273 22.2347C50.2561 22.1232 50.2455 22.0109 50.2412 21.8982V17.9998C50.2412 17.5173 50.2793 17.4855 50.7555 17.4792H51.4729C51.5494 17.4771 51.6258 17.4813 51.7015 17.4919C51.8221 17.5109 51.8856 17.5681 51.8983 17.6887C51.9089 17.8027 51.9131 17.9171 51.911 18.0316V19.9553Z" fill="#01CD78"/>
<path d="M19.5756 18.8505V20.4822C19.5756 20.9203 19.5248 20.9647 19.0994 20.9711C18.8074 20.9774 18.5153 20.9711 18.2296 20.9711C18.1787 20.9721 18.1278 20.97 18.0772 20.9647C17.8487 20.9457 17.7852 20.8822 17.7661 20.6663C17.7598 20.5901 17.7598 20.5139 17.7598 20.4377V17.2505C17.7598 16.768 17.7979 16.7299 18.274 16.7235H19.182C19.4994 16.7362 19.5629 16.7934 19.5756 17.1045C19.582 17.1933 19.5756 17.2822 19.5756 17.3711C19.582 17.86 19.582 18.3552 19.5756 18.8505Z" fill="#01CD78"/>
<path d="M39.6709 18.8062V17.2506C39.6688 17.1489 39.6731 17.0471 39.6836 16.9459C39.6963 16.8125 39.7598 16.749 39.8995 16.7236C39.9245 16.7184 39.9501 16.7163 39.9757 16.7173C40.3693 16.7173 40.7566 16.711 41.1503 16.7173C41.3598 16.7236 41.4169 16.7871 41.436 16.9903C41.4423 17.0665 41.4423 17.1427 41.4423 17.2189V20.4379C41.4444 20.527 41.4402 20.6161 41.4296 20.7045C41.4106 20.8569 41.3471 20.9204 41.1884 20.9522C41.1757 20.9522 41.163 20.9585 41.1503 20.9585C40.7439 20.9585 40.3439 20.9649 39.9376 20.9585C39.7535 20.9522 39.69 20.8823 39.6773 20.6982C39.6709 20.5966 39.6709 20.495 39.6709 20.3934V18.8062Z" fill="#01CD78"/>
<path d="M16.2363 33.0408V30.5012C16.2363 30.025 16.2617 30.006 16.7252 29.9996C16.8776 29.9996 17.03 29.9996 17.1823 30.0123C17.3347 30.025 17.4109 30.0948 17.4363 30.2409C17.449 30.3425 17.449 30.444 17.4554 30.5456V35.5487C17.4554 36.0503 17.4173 36.0821 16.9157 36.0884C16.7887 36.0884 16.6617 36.0948 16.5347 36.0821C16.3252 36.0694 16.2617 36.0122 16.249 35.8091C16.2427 35.7075 16.2427 35.6059 16.2427 35.5043C16.2363 34.6853 16.2363 33.8599 16.2363 33.0408Z" fill="#01CD78"/>
<path d="M39.7603 24.6981C40.1031 24.6981 40.4396 24.6918 40.7825 24.6918C40.8587 24.6918 40.9348 24.6981 41.011 24.7045C41.0558 24.7084 41.0979 24.7275 41.1303 24.7587C41.1626 24.7899 41.1833 24.8313 41.1888 24.8759C41.2015 24.9642 41.2078 25.0533 41.2079 25.1426V29.352C41.2079 29.7457 41.1634 29.7838 40.7761 29.7901C40.5221 29.7901 40.2682 29.7965 40.0206 29.7838C39.8555 29.7774 39.7983 29.7076 39.7793 29.5489C39.773 29.4727 39.7729 29.3965 39.7729 29.3203C39.7603 27.7774 39.7603 26.2346 39.7603 24.6981Z" fill="#01CD78"/>
<path d="M19.4233 24.6918C19.4296 24.8188 19.436 24.9457 19.436 25.0727V29.2441C19.436 29.7774 19.4296 29.7838 18.8772 29.7838C18.6741 29.7838 18.4709 29.7901 18.2741 29.7774C18.0899 29.7647 18.0265 29.6949 18.0011 29.5235C17.9947 29.46 17.9884 29.3965 17.9884 29.333V25.1616C17.9874 25.0721 17.9959 24.9827 18.0138 24.8949C18.0197 24.8437 18.0432 24.7962 18.0802 24.7603C18.1173 24.7244 18.1656 24.7025 18.2169 24.6981C18.2926 24.6876 18.3691 24.6833 18.4455 24.6854C18.7693 24.6854 19.0995 24.6918 19.4233 24.6918Z" fill="#01CD78"/>
<path d="M42.7161 25.2886V27.7584C42.7161 28.2536 42.6971 28.2727 42.2082 28.279C42.0685 28.279 41.9288 28.2854 41.7891 28.2727C41.5733 28.26 41.5161 28.2029 41.5034 27.9997C41.4971 27.9108 41.4971 27.8219 41.4971 27.733V22.7997C41.4971 22.2728 41.5098 22.2601 42.024 22.2601C42.1891 22.2601 42.3542 22.2664 42.5193 22.2728C42.5642 22.2731 42.6073 22.2902 42.6402 22.3208C42.6731 22.3513 42.6934 22.3931 42.6971 22.4378C42.7129 22.5514 42.7193 22.6661 42.7161 22.7807V25.2886Z" fill="#01CD78"/>
<path d="M16.5342 25.2251V22.7553C16.5342 22.2791 16.5596 22.2601 17.0231 22.2538C17.1881 22.2538 17.3532 22.2538 17.5183 22.2665C17.6643 22.2792 17.7278 22.3426 17.7469 22.476C17.7574 22.5772 17.7617 22.679 17.7596 22.7807V27.7521C17.7596 28.2473 17.7405 28.2664 17.2516 28.2727H16.985C16.5723 28.2664 16.5469 28.2346 16.5405 27.8092V27.5807C16.5342 26.7934 16.5342 26.0124 16.5342 25.2251Z" fill="#01CD78"/>
<path d="M27.8608 18.2346V19.714C27.8608 19.8156 27.8608 19.9171 27.8544 20.0187C27.8417 20.2029 27.7782 20.279 27.6004 20.279C27.1814 20.2917 26.7687 20.2854 26.3497 20.279C26.1846 20.2727 26.1274 20.2029 26.1084 20.0441C26.1021 19.9552 26.1021 19.8663 26.1021 19.7775V16.4823C26.1211 16.1966 26.1782 16.1331 26.4767 16.1267C26.8195 16.1204 27.156 16.114 27.4989 16.1267C27.7909 16.1331 27.8481 16.2029 27.8608 16.495C27.8671 16.66 27.8608 16.8251 27.8608 16.9902V18.2346Z" fill="#01CD78"/>
<path d="M33.0932 18.2537V19.7711C33.0953 19.8729 33.0911 19.9747 33.0805 20.0759C33.0786 20.127 33.0583 20.1758 33.0233 20.2131C32.9883 20.2505 32.9409 20.2739 32.89 20.279C32.8271 20.2896 32.7633 20.2938 32.6995 20.2917H31.7154C31.6645 20.2928 31.6137 20.2907 31.563 20.2854C31.4234 20.2664 31.3599 20.2029 31.3408 20.0695C31.3345 20.006 31.3281 19.9425 31.3281 19.8791V16.5839C31.3281 16.1839 31.3853 16.1331 31.7916 16.1267C32.071 16.1204 32.344 16.1267 32.6233 16.1267C32.6871 16.1246 32.7509 16.1289 32.8138 16.1394C32.9916 16.1648 33.0614 16.2283 33.0805 16.4061C33.0889 16.5074 33.0911 16.6092 33.0868 16.7108C33.0932 17.2124 33.0932 17.7331 33.0932 18.2537Z" fill="#01CD78"/>
<path d="M41.8042 33.0345V30.4948C41.8042 30.025 41.8296 29.9996 42.2931 29.9996C42.4455 29.9996 42.5979 29.9996 42.7439 30.0123C42.795 30.0123 42.8442 30.0321 42.8809 30.0677C42.9176 30.1032 42.9391 30.1517 42.9407 30.2028C42.9513 30.304 42.9555 30.4058 42.9534 30.5075V35.5868C42.9534 36.0567 42.9217 36.0821 42.4645 36.0821C42.3122 36.0821 42.1598 36.0821 42.0138 36.0694C41.9626 36.0694 41.9135 36.0495 41.8768 36.014C41.84 35.9784 41.8186 35.93 41.8169 35.8789C41.8064 35.7649 41.8021 35.6505 41.8042 35.536V33.0345Z" fill="#01CD78"/>
<path d="M18.8311 35.2122V37.7138C18.8311 38.1773 18.7994 38.2027 18.3359 38.209C18.1962 38.209 18.0565 38.209 17.9232 38.1963C17.7899 38.1836 17.72 38.1138 17.701 37.9804C17.6904 37.8792 17.6862 37.7774 17.6883 37.6757V32.6345C17.6851 32.5325 17.6915 32.4305 17.7073 32.3297C17.7103 32.278 17.733 32.2293 17.7708 32.1939C17.8086 32.1584 17.8587 32.1388 17.9105 32.1393C18.1518 32.1329 18.3867 32.1329 18.628 32.1393C18.7613 32.1456 18.8184 32.2218 18.8311 32.3678C18.8396 32.4819 18.8417 32.5964 18.8375 32.7107C18.8311 33.5424 18.8311 34.3805 18.8311 35.2122Z" fill="#01CD78"/>
<path d="M41.511 35.174V37.6438C41.5132 37.7583 41.5089 37.8727 41.4983 37.9867C41.4973 38.0392 41.4764 38.0893 41.4399 38.127C41.4034 38.1647 41.3539 38.1872 41.3015 38.1899C41.0625 38.2026 40.8231 38.2026 40.5841 38.1899C40.4507 38.1835 40.3872 38.101 40.3745 37.9613C40.364 37.8728 40.3597 37.7837 40.3619 37.6946V32.609C40.3619 32.1646 40.3936 32.1392 40.838 32.1328C40.9777 32.1328 41.1174 32.1265 41.2571 32.1392C41.4349 32.1519 41.4983 32.2153 41.511 32.4058C41.5174 32.5074 41.5174 32.609 41.5174 32.7106C41.511 33.5296 41.511 34.3487 41.511 35.174Z" fill="#01CD78"/>
<path d="M25.8101 41.6376V42.6979C25.8122 42.787 25.8079 42.8761 25.7974 42.9645C25.7783 43.1169 25.7148 43.1804 25.5561 43.2058C25.5184 43.2132 25.4802 43.2174 25.4418 43.2185H24.045C23.994 43.2174 23.9431 43.2132 23.8926 43.2058C23.842 43.2013 23.7945 43.1791 23.7585 43.1431C23.7226 43.1071 23.7004 43.0597 23.6958 43.009C23.6833 42.91 23.677 42.8104 23.6768 42.7106V40.5138C23.6768 40.0503 23.7022 40.0313 24.172 40.0249H25.3085C25.3847 40.0249 25.4609 40.0249 25.537 40.0313C25.7275 40.0503 25.7847 40.1011 25.8037 40.2852C25.8101 40.3741 25.8101 40.463 25.8101 40.5519V41.6376Z" fill="#009C59"/>
<path d="M33.3833 41.5742V40.5138C33.3833 40.4377 33.3833 40.3615 33.3896 40.2853C33.4087 40.1012 33.4658 40.0313 33.65 40.025C34.1833 40.0186 34.7103 40.0186 35.2436 40.025C35.4277 40.025 35.4849 40.0948 35.5039 40.2789C35.5103 40.3551 35.5103 40.4313 35.5103 40.5075V42.7106C35.5103 43.1678 35.4658 43.2122 35.015 43.2186C34.6341 43.2249 34.2595 43.2186 33.8785 43.2186C33.815 43.2186 33.7515 43.2186 33.6881 43.2122C33.4658 43.1868 33.3896 43.1233 33.3896 42.9011C33.3833 42.4567 33.3896 42.0186 33.3833 41.5742Z" fill="#009C59"/>
<path d="M33.396 30.3679V31.733C33.396 31.8346 33.3959 31.9362 33.3896 32.0378C33.3769 32.2028 33.3134 32.279 33.161 32.2854C32.7356 32.2917 32.3039 32.2917 31.8785 32.2854C31.7388 32.2854 31.6753 32.2092 31.6563 32.0695C31.6457 31.981 31.6415 31.8919 31.6436 31.8028V28.9267C31.6415 28.8376 31.6457 28.7485 31.6563 28.66C31.6753 28.5076 31.7452 28.4315 31.9039 28.4251C32.3166 28.4124 32.7356 28.4124 33.1483 28.4251C33.3071 28.4315 33.3706 28.5013 33.3833 28.6664C33.3917 28.7677 33.3938 28.8695 33.3896 28.9711C33.3959 29.4346 33.396 29.9045 33.396 30.3679Z" fill="#01CD78"/>
<path d="M27.5478 30.3742V31.8535C27.5414 32.2535 27.5033 32.2916 27.116 32.2916C26.824 32.2979 26.5319 32.2916 26.2462 32.2916C26.1953 32.2926 26.1444 32.2905 26.0938 32.2852C25.8716 32.2662 25.8145 32.2091 25.8018 31.9741C25.7954 31.9106 25.7954 31.8472 25.7954 31.7837V28.9393C25.7954 28.444 25.8272 28.4123 26.3414 28.4059C26.6081 28.4059 26.8748 28.3996 27.1351 28.4059C27.4779 28.4123 27.5351 28.4758 27.5414 28.8059C27.5478 29.2377 27.5414 29.6631 27.5414 30.0948C27.5478 30.1964 27.5478 30.2853 27.5478 30.3742Z" fill="#01CD78"/>
<path d="M25.9492 19.7267C25.9492 20.1966 25.9555 20.6601 25.9492 21.1299C25.9429 21.5172 25.8921 21.5743 25.5111 21.5807C25.1937 21.587 24.8762 21.5807 24.5651 21.5807C24.4885 21.5806 24.4121 21.5743 24.3365 21.5616C24.2921 21.5567 24.2506 21.5372 24.2185 21.5061C24.1863 21.4751 24.1653 21.4344 24.1587 21.3902C24.1411 21.2789 24.1326 21.1664 24.1334 21.0537V18.476C24.1334 17.9744 24.1714 17.9426 24.673 17.9363H25.5048C25.5812 17.9342 25.6576 17.9384 25.7333 17.949C25.854 17.968 25.9175 18.0252 25.9302 18.1395C25.9429 18.241 25.9429 18.3426 25.9492 18.4442V19.7267Z" fill="#01CD78"/>
<path d="M35.061 19.7585V21.0854C35.061 21.1616 35.061 21.2378 35.0546 21.314C35.0356 21.4981 34.9784 21.568 34.7943 21.5743C34.3752 21.5807 33.9626 21.5807 33.5435 21.5743C33.3848 21.568 33.3276 21.4981 33.3086 21.3331C33.3022 21.2569 33.3022 21.1807 33.3022 21.1045V18.4125C33.3022 17.968 33.334 17.9426 33.7721 17.9363H34.6038C34.693 17.9363 34.7822 17.9427 34.8705 17.9553C34.9151 17.9608 34.9565 17.9815 34.9877 18.0139C35.0189 18.0462 35.038 18.0883 35.0419 18.1331C35.0546 18.2342 35.0609 18.336 35.061 18.4379V19.7585Z" fill="#01CD78"/>
<path d="M19.2842 13.4602V14.8633C19.2842 14.9649 19.2842 15.0665 19.2778 15.1681C19.2651 15.3522 19.208 15.422 19.0239 15.4284C18.7318 15.4411 18.4461 15.4411 18.154 15.4284C17.989 15.422 17.9318 15.3522 17.9128 15.1935C17.9043 15.1048 17.9022 15.0157 17.9064 14.9268V11.8983C17.9064 11.4221 17.9318 11.403 18.3953 11.3967C18.6112 11.3967 18.827 11.3967 19.0366 11.403C19.2016 11.4094 19.2588 11.4792 19.2778 11.638C19.2863 11.7393 19.2884 11.8411 19.2842 11.9427C19.2905 12.4507 19.2842 12.9522 19.2842 13.4602Z" fill="#01CD78"/>
<path d="M41.29 13.4537V14.8505C41.29 14.9394 41.29 15.0283 41.2837 15.1172C41.271 15.3521 41.2138 15.4156 40.9916 15.422C40.7123 15.4347 40.4392 15.4283 40.1599 15.4156C39.9948 15.4093 39.9377 15.3394 39.9186 15.1807C39.9102 15.0921 39.908 15.0029 39.9123 14.914V11.8855C39.9102 11.7964 39.9144 11.7073 39.925 11.6188C39.944 11.4601 40.0075 11.3966 40.1726 11.3903C40.4646 11.3839 40.7504 11.3839 41.0424 11.3903C41.2075 11.3966 41.271 11.4664 41.2837 11.6252C41.2921 11.7265 41.2943 11.8283 41.29 11.9299V13.4537Z" fill="#01CD78"/>
<path d="M31.0428 20.0188V21.3458C31.0428 21.4347 31.0428 21.5235 31.0364 21.6124C31.0174 21.7966 30.9603 21.8664 30.7761 21.8727C30.5095 21.8854 30.2428 21.8854 29.9825 21.8727C29.7666 21.8664 29.7031 21.7902 29.6841 21.5616C29.6777 21.4854 29.6777 21.4093 29.6777 21.3331V18.7109C29.6777 18.5963 29.6841 18.4819 29.6968 18.368C29.6995 18.3156 29.722 18.2662 29.7597 18.2297C29.7974 18.1931 29.8475 18.1723 29.9 18.1712C30.2174 18.1649 30.5285 18.1649 30.846 18.1712C30.9603 18.1776 31.0174 18.2537 31.0301 18.3744C31.0407 18.4756 31.0449 18.5774 31.0428 18.6791V20.0188Z" fill="#01CD78"/>
<path d="M28.1519 20.0252V18.7363C28.1498 18.6346 28.154 18.5328 28.1646 18.4316C28.1836 18.2538 28.2535 18.1776 28.4313 18.1713C28.7106 18.1586 28.9836 18.1586 29.263 18.1713C29.4217 18.1776 29.4852 18.2538 29.5106 18.4062C29.5212 18.4947 29.5254 18.5838 29.5233 18.6728V21.3585C29.5235 21.4583 29.5171 21.558 29.5043 21.6569C29.5019 21.7084 29.4805 21.7571 29.444 21.7935C29.4076 21.83 29.3589 21.8514 29.3074 21.8538C29.0027 21.8665 28.7043 21.8665 28.3995 21.8601C28.2662 21.8538 28.1963 21.7776 28.1773 21.6442C28.1667 21.543 28.1625 21.4412 28.1646 21.3395C28.1519 20.9077 28.1519 20.4696 28.1519 20.0252Z" fill="#01CD78"/>
<path d="M26.4014 40.8503C26.4014 40.571 26.3951 40.298 26.4014 40.0186C26.4078 39.79 26.4712 39.7265 26.6998 39.7202C27.2268 39.7138 27.7601 39.7138 28.2871 39.7202C28.5411 39.7265 28.6046 39.7837 28.6109 40.0376C28.6173 40.4186 28.6173 40.7932 28.6173 41.1741C28.6173 41.3773 28.6173 41.5805 28.6046 41.7773C28.5919 41.9424 28.5284 41.9995 28.3633 42.0122C28.2236 42.0249 28.0839 42.0186 27.9506 42.0186H26.8522C26.776 42.0186 26.6998 42.0186 26.6236 42.0122C26.4839 41.9932 26.4205 41.936 26.4014 41.7963C26.3908 41.6824 26.3866 41.5679 26.3887 41.4535C26.3951 41.2567 26.3951 41.0535 26.4014 40.8503Z" fill="#009C59"/>
<path d="M32.7925 40.863C32.7925 41.155 32.7989 41.4407 32.7925 41.7328C32.7862 41.9423 32.7227 42.0058 32.5132 42.0122C31.9608 42.0185 31.4021 42.0185 30.8497 42.0122C30.6846 42.0122 30.6211 41.9423 30.5957 41.7899C30.5852 41.7142 30.5809 41.6378 30.583 41.5614V40.1963C30.583 40.1328 30.583 40.0693 30.5894 40.0058C30.6148 39.8027 30.6783 39.7392 30.8751 39.7201C30.9386 39.7138 31.0021 39.7138 31.0656 39.7138H32.3544C32.4309 39.7117 32.5073 39.7159 32.583 39.7265C32.7227 39.7455 32.7862 39.809 32.7925 39.955C32.7925 40.2598 32.7862 40.5646 32.7925 40.863Z" fill="#009C59"/>
<path d="M52.4385 19.9108C52.4385 19.4791 52.4321 19.0537 52.4385 18.6219C52.4448 18.2346 52.4956 18.1775 52.8702 18.1712C53.0586 18.1637 53.2472 18.1658 53.4353 18.1775C53.6321 18.1902 53.6956 18.2664 53.7147 18.4696C53.721 18.5458 53.721 18.6219 53.721 18.6981V21.1997C53.721 21.6886 53.6829 21.7203 53.2131 21.7267C53.048 21.7267 52.8829 21.733 52.7178 21.7203C52.521 21.7013 52.4575 21.6314 52.4385 21.4283C52.4321 21.3394 52.4321 21.2505 52.4321 21.1616C52.4321 20.7426 52.4321 20.3299 52.4385 19.9108Z" fill="#01CD78"/>
<path d="M6.75604 19.9427V21.1554C6.75604 21.2443 6.75604 21.3331 6.74969 21.422C6.73064 21.6252 6.66715 21.7077 6.47667 21.7141C6.23541 21.7268 6.00049 21.7204 5.75922 21.7141C5.70171 21.7159 5.64563 21.696 5.6021 21.6584C5.55858 21.6207 5.53081 21.5681 5.52431 21.5109C5.49451 21.3624 5.47752 21.2116 5.47351 21.0601C5.46716 20.3173 5.46716 19.5681 5.47351 18.8252C5.47643 18.6996 5.48917 18.5743 5.51161 18.4506C5.53065 18.311 5.61319 18.2094 5.75287 18.1967C6.01319 18.184 6.27985 18.184 6.54651 18.1903C6.59792 18.1928 6.64656 18.2143 6.68295 18.2507C6.71934 18.2871 6.74087 18.3357 6.74334 18.3871C6.75603 18.4887 6.75603 18.5903 6.76238 18.6919C6.75603 19.111 6.75604 19.53 6.75604 19.9427Z" fill="#01CD78"/>
<path d="M19.0352 37.6186C19.0352 37.0598 19.0288 36.5075 19.0352 35.9487C19.0415 35.6059 19.086 35.5614 19.4352 35.5487C19.5728 35.5434 19.7107 35.5476 19.8478 35.5614C20.0066 35.5805 20.0764 35.644 20.0955 35.7964C20.106 35.8976 20.1103 35.9994 20.1082 36.1011V39.1296C20.1082 39.6376 20.0891 39.6566 19.5685 39.6566C19.0479 39.6566 19.0352 39.6439 19.0288 39.1296C19.0288 38.6344 19.0352 38.1265 19.0352 37.6186Z" fill="#01CD78"/>
<path d="M39.1421 37.5995V36.082C39.14 35.9803 39.1443 35.8785 39.1548 35.7773C39.1543 35.7482 39.1597 35.7194 39.1707 35.6925C39.1818 35.6656 39.1982 35.6413 39.2191 35.6211C39.2399 35.6009 39.2647 35.5851 39.2919 35.5748C39.319 35.5646 39.348 35.56 39.377 35.5614C39.578 35.5476 39.7796 35.5497 39.9802 35.5677C40.1135 35.5741 40.1834 35.6503 40.2024 35.79C40.213 35.8912 40.2172 35.993 40.2151 36.0947V39.1613C40.2183 39.2633 40.2119 39.3653 40.1961 39.4661C40.1941 39.5182 40.1716 39.5674 40.1336 39.6031C40.0956 39.6387 40.045 39.658 39.9929 39.6566C39.777 39.6629 39.5675 39.6629 39.3516 39.6566C39.231 39.6502 39.1739 39.5804 39.1548 39.4598C39.1443 39.3585 39.14 39.2568 39.1421 39.155V37.5995Z" fill="#01CD78"/>
<path d="M22.3735 36.9075C22.1449 36.9075 21.9164 36.9139 21.6942 36.9075C21.491 36.8948 21.4148 36.825 21.4084 36.6218C21.3958 36.1774 21.3958 35.7393 21.4084 35.2949C21.4148 35.0853 21.4783 35.0219 21.6878 35.0155C22.0053 35.0028 22.3164 35.0092 22.6338 35.0092C22.7862 35.0092 22.9386 35.0092 23.091 35.0155C23.2687 35.0282 23.3386 35.098 23.3576 35.2758C23.3703 35.4028 23.3703 35.5298 23.3703 35.6568V36.3742C23.3724 36.4633 23.3682 36.5524 23.3576 36.6409C23.3386 36.8187 23.2751 36.8948 23.091 36.9012C22.8497 36.9139 22.6148 36.9075 22.3735 36.9075Z" fill="#009C59"/>
<path d="M35.8868 35.974C35.8868 35.7328 35.8804 35.4979 35.8868 35.2566C35.8931 35.0979 35.963 35.0344 36.1281 35.0217C36.2169 35.0153 36.3058 35.0153 36.3947 35.0153C36.7693 35.0153 37.1503 35.0153 37.5249 35.0217C37.7153 35.028 37.7852 35.0915 37.7915 35.2693C37.7979 35.7201 37.8042 36.1772 37.7915 36.628C37.7852 36.8248 37.7153 36.901 37.5058 36.9074C37.055 36.9201 36.5979 36.9201 36.1471 36.9074C35.9503 36.901 35.8931 36.8312 35.8804 36.6153C35.8677 36.3994 35.8804 36.1836 35.8868 35.974Z" fill="#009C59"/>
</g>
<defs>
<clipPath id="clip0_188_1015">
<rect width="59.1992" height="46.6451" fill="white"/>
</clipPath>
</defs>
</svg>
