<?xml version="1.0" encoding="utf-8"?>
<!-- Generator: Adobe Illustrator 27.3.1, SVG Export Plug-In . SVG Version: 6.00 Build 0)  -->
<svg version="1.1" id="ads" xmlns="http://www.w3.org/2000/svg" xmlns:xlink="http://www.w3.org/1999/xlink" x="0px" y="0px"
	 viewBox="0 0 2048 2048" style="enable-background:new 0 0 2048 2048;" xml:space="preserve">
<style type="text/css">
	.st0{fill:#231F20;stroke:url(#SVGID_1_);stroke-width:30;stroke-linecap:round;stroke-linejoin:round;stroke-miterlimit:10;}
	.st1{fill:#009C59;}
	.st2{fill:#00D16E;}
	.st3{fill:#00CF6D;}
</style>
<linearGradient id="SVGID_1_" gradientUnits="userSpaceOnUse" x1="126.2472" y1="1024.2184" x2="1871.6255" y2="1024.2184">
	<stop  offset="0" style="stop-color:#009C59"/>
	<stop  offset="0.1397" style="stop-color:#009F57"/>
	<stop  offset="0.2337" style="stop-color:#00A84F"/>
	<stop  offset="0.3142" style="stop-color:#00B741"/>
	<stop  offset="0.3872" style="stop-color:#00CC2E"/>
	<stop  offset="0.4545" style="stop-color:#00E815"/>
	<stop  offset="0.5" style="stop-color:#00FF00"/>
	<stop  offset="0.5422" style="stop-color:#00EA13"/>
	<stop  offset="0.613" style="stop-color:#00CE2C"/>
	<stop  offset="0.6892" style="stop-color:#00B840"/>
	<stop  offset="0.7722" style="stop-color:#00A84E"/>
	<stop  offset="0.8671" style="stop-color:#009F56"/>
	<stop  offset="1" style="stop-color:#009C59"/>
	<animateTransform attributeName="gradientTransform" type="rotate" from="0 40 40" to="360 40 40" dur="5s"
             repeatCount="indefinite" />
</linearGradient>
<polygon class="st0" points="141.2,531.5 998.9,38.1 1856.6,519.8 1856.6,1515.3 998.9,2010.3 152.9,1511.8 "/>
<path class="st1" d="M970.3,714.9c0.4,3.7,0.8,7,5.8,6.6c2.7-0.2,5.6,0,8.4,0c149,0,297.9,0,446.9-0.2c10.9,0,21.6-0.6,32.4,1.2
	c16.3,2.7,24.5,11.1,25.8,29.5c1.4,18.3,2.3,36.3,2.3,54.6c0,178.5,0.2,357,0.4,535.5c-0.2,12.2-1.4,24.5-3.5,36.5
	c-3.7,23.7-23.7,40.8-48,42.3c-2.7,0.2-5.6,0-8.4,0c-251.7,0-503.2,0-755,0.2c-10.9,0.2-21.6-2.3-31.3-7.6
	c-15.9-8.9-23.3-21.9-25.6-40.4c-5.6-44.7-3.3-89.5-2.7-134.2c1.4-106.8,0.4-213.5,1.2-320.1c0-3.5,0.2-7,0.2-10.5
	c4.5-2.9,8.2,0,11.7,1.7c57.1,25.6,115.2,29.9,174.8,9.7c7.6-2.7,15.7-3.3,23.7-1.9c24.9,3.9,49.9,7.6,74.8,11.1
	c13.8,1.9,18.5-2.5,19-16.5c1-26.8,3.3-53.6,4.5-80.4c0.4-6,2.5-11.7,6.2-16.3c19-27.8,28.9-58.7,32.2-92.1
	C966.6,720.1,965.2,715.8,970.3,714.9z"/>
<path class="st2" d="M970.3,714.9c-1.2,1-1.7,2.1-1.7,3.7c0,28.6-8,55-21.2,79.8c-4.1,7.8-7.8,15.7-13.6,22.1
	c-2.9,3.1-3.3,7.6-3.1,11.8c0.4,17.9-2.1,35.3-2.5,53.2c-0.2,10.3-1.2,20.8-1.7,31.3c-0.6,11.7-8.2,17.1-19.6,15.1
	c-16.9-2.7-33.8-4.9-50.5-7.2c-10.7-1.6-21.4-2.9-31.9-5c-4.1-1-8.4-0.6-12.2,1c-15.3,5.8-31.3,9.9-47.6,12
	c-17.9,2.1-35.7,3.5-54.2,1.2c-21.8-2.7-43.3-7.4-64.1-14.4c-9.3-3.1-17.3-9.1-26.8-11.7c-4.5-2.7-8.9-5.4-13.4-8.2
	c-64.3-41-102.9-98.7-113.2-174.4C475.8,598.9,562.2,481,689.2,458.1c123.1-22.3,253.9,56.7,278.9,196
	C971.5,674.3,972.2,694.7,970.3,714.9z"/>
<path class="st2" d="M877.8,1056.9c-2.9-96.9,80.8-179.5,179.1-178.1c98.3,1,177.1,81,176.6,179.1c-0.6,97.9-78.5,177.1-177.1,177.5
	C955.1,1236,875.3,1153.8,877.8,1056.9z"/>
<path d="M743,707.5c0-16.7,0.2-33.6,0-50.3c0-5.2,1.4-7.6,7-7.4c15.7,0.8,31.5-1,47,1.6c38.7,6.6,49.9,38.8,46.2,64.9
	c-4.5,29.9-24.5,47.4-55.2,48.8c-12.8,0.6-25.8,0-38.8,0.4c-5,0.2-6.6-1.7-6.6-6.6C743.2,741.7,743,724.6,743,707.5z"/>
<path d="M729.1,764.6c-20.4,1.7-20.4,1.7-27-15c-1.7-4.5-3.5-7-8.9-6.8c-13,0.4-25.8,0.2-38.8,0c-4.5,0-7.4,1.4-8.5,5.8
	c-0.2,0.6-0.4,1.4-0.8,1.9c-6.4,16.3-6.4,16.3-25.2,14c1.2-7,4.5-13.2,7-19.6c10.9-28.4,21.9-56.7,33-85.1c1.4-3.3,1.2-8.5,5.6-9.3
	c5.8-1,11.8-1,17.7,0c1.7,0.2,2.5,2.3,3.1,3.9C700.3,690.8,714.5,727.3,729.1,764.6z"/>
<path d="M1024.5,1137.5c-1.9-14.8-1.2-122,1.2-131.5l85.7,63.5L1024.5,1137.5z"/>
<path class="st2" d="M762.5,706.9c0-9.7,0-19.6,0-29.3c0-8.9,0.2-8.9,9.5-8.9c4.3,0,8.4,0,12.6,0.2c31.3,1,41,22.9,38.3,46.2
	c-2.3,19.2-15.1,30.7-34.6,31.7c-8.2,0.4-18.5,4.1-24.3-1.6c-4.9-4.9-1.2-14.8-1.6-22.3C762.3,717.4,762.5,712.1,762.5,706.9z"/>
<path class="st3" d="M654.5,725.3l18.8-50.3c8.2,17.3,12.8,33.4,19.6,49.7C679.9,725.9,667.9,725.1,654.5,725.3z"/>
</svg>
