<?xml version="1.0" encoding="utf-8"?>
<!-- Generator: Adobe Illustrator 27.3.1, SVG Export Plug-In . SVG Version: 6.00 Build 0)  -->
<svg version="1.1" id="Layer_1" xmlns="http://www.w3.org/2000/svg" xmlns:xlink="http://www.w3.org/1999/xlink" x="0px" y="0px"
	 viewBox="0 0 2048 2048" style="enable-background:new 0 0 2048 2048;" xml:space="preserve">
<style type="text/css">
	.st0{fill:#231F20;stroke:url(#SVGID_1_);stroke-width:30;stroke-linecap:round;stroke-linejoin:round;stroke-miterlimit:10;}
	.st1{fill:#00D16E;}
	.st2{fill:#009C59;}
</style>
<linearGradient id="SVGID_1_" gradientUnits="userSpaceOnUse" x1="126.2472" y1="1016.2184" x2="1871.6255" y2="1016.2184">
	<stop  offset="0" style="stop-color:#009C59"/>
	<stop  offset="0.1397" style="stop-color:#009F57"/>
	<stop  offset="0.2337" style="stop-color:#00A84F"/>
	<stop  offset="0.3142" style="stop-color:#00B741"/>
	<stop  offset="0.3872" style="stop-color:#00CC2E"/>
	<stop  offset="0.4545" style="stop-color:#00E815"/>
	<stop  offset="0.5" style="stop-color:#00FF00"/>
	<stop  offset="0.5422" style="stop-color:#00EA13"/>
	<stop  offset="0.613" style="stop-color:#00CE2C"/>
	<stop  offset="0.6892" style="stop-color:#00B840"/>
	<stop  offset="0.7722" style="stop-color:#00A84E"/>
	<stop  offset="0.8671" style="stop-color:#009F56"/>
	<stop  offset="1" style="stop-color:#009C59"/>
	
 <animateTransform attributeName="gradientTransform" type="rotate" from="0 40 40" to="360 40 40" dur="5s"
             repeatCount="indefinite" />
</linearGradient>
<polygon class="st0" points="141.2,523.5 998.9,30.1 1856.6,511.8 1856.6,1507.3 998.9,2002.3 152.9,1503.8 "/>
<path class="st1" d="M597.8,963.2c5.1,0.6,10.9,0.2,16.7,1.9c19.5,5.1,31.5,17.8,37.5,36.4c4.7,15.2,6.6,31,8.6,46.7
	c6.2,55,13.1,110,20.6,165.3c3,21.4,4.9,43.2,8.6,64.7c5.1,30.2-13.9,45.2-34.5,54.2c-11.8,5.1-24.6,6-37.2,8.1
	c-23.5,3.9-47.3,4.7-71.3,5.1c-15.4,0.2-28.9-4.7-40-16.3c-11.1-11.6-18-26.3-19.7-42.2c-5.8-47.1-11.6-94.4-17.3-141.5
	c-3.9-30.4-7.7-60.8-11.8-91.2c-1.5-13.1-1.7-26.1-0.2-39.2c1.7-16.3,11.1-28,24.8-36.2c7.3-4.3,16.1-3,24.2-4.3
	c7.1-1.1,15.8,0.6,21-3.6c4.9-4.1,3.9-12.6,5.8-19.3c7.7-30.8,15-61.7,27.4-91c1.3-2.4,1.3-5.4,0-7.7c-20.1-38.5-13.9-75.1,9.2-110
	c10.9-16.5,25.3-30,39.4-43.9c25.7-25.5,52.9-49.5,81.6-71.9c56.7-43.9,121.2-72.1,190.5-89.7c45.6-11.8,92.5-16.5,139.6-14.3
	c60.6,3,118.6,17.1,174.5,40.5c40.9,17.1,79.9,37.9,114.3,66.1c36.2,29.3,71.3,59.9,102.8,94.4c16.9,18.6,30,39.4,34.3,64.9
	c3.6,21.8,1.1,42.6-9.2,62.1c-1.9,3.2-2.1,7.3-0.6,10.5c13.7,33,21.8,67.4,29.5,102.1c1.3,6,3.9,8.8,10.1,9
	c8.3,0.4,16.5,2.1,24.6,2.8c18,1.3,28.9,12,35.3,27.6c5.8,14.3,5.4,29.8,3.4,45c-3.6,30.8-7.7,61.4-11.6,92.3
	c-3.9,30.4-7.7,60.8-11.3,91.2c-2.4,18.4-4.9,36.8-6.9,55.4c-1.5,15.2-7.7,29.5-18.2,40.7c-10.3,11.6-23.1,17.6-38.3,17.6
	c-32.8-0.2-65.5-2.6-97.8-9.2c-17.8-3.6-32.8-12-43.2-27.6c-4.7-6.6-6.6-14.6-5.4-22.5c4.5-33.8,9-67.6,13.1-101.5
	c4.5-37.2,10.1-74.5,13.7-111.7c1.9-22.7,5.4-45.2,10.5-67.4c6-24.8,24.8-41.5,50.9-41.7c6.9,0,5.1-4.3,4.5-7.5
	c-3.2-18-7.9-35.8-13.7-52.9c-2.1-6.2-4.5-12.2-6.6-18.4c-1.3-4.1-3.4-6.6-7.7-7.3c-29.3-4.7-48.6-24.8-67.9-44.7
	c-8.6-9-16.1-19.1-23.8-28.7c-16.9-21.8-37.7-39.4-59.9-55.2c-32.5-23.1-66.6-44.3-104-59.5c-24.6-10.1-50.1-14.8-76-19.1
	c-48-7.9-95-1.1-140.9,12.4c-24.8,7.7-48.4,18.4-70.4,32.1c-29.5,17.8-58.4,36.8-84.3,59.7c-13.3,12.2-25.3,25.5-36,39.8
	c-13.9,17.6-29.8,33.6-47.3,47.5c-9.6,7.5-20.8,12.6-32.8,14.8c-6.2,1.3-9.4,3.9-11.6,9.8c-8.8,23.5-15.6,47.7-20.3,72.4
	C596.6,960.2,596.8,961.9,597.8,963.2z"/>
<path class="st2" d="M1045.7,1242.7c6.2-38.3,12.4-76.6,18.6-115.2c2.4-15,4.7-30,7.1-45c0.2-1.1,0.4-1.9,0.9-3
	c2.1-9.6,6.9-14.6,14.6-15c7.7-0.4,13.1,3.6,16.5,12.8c9.2,25.3,18.2,50.5,27.4,75.8c4.3,12.2,2.8,10.3,14.1,10.3
	c29.3,0,58.7-0.2,88-0.2c3.2,0,6.2,0,9.4,0.2c8.3,0.9,13.3,6.2,13.5,14.3c0.2,8.3-4.9,14.6-13.7,15.2c-11.8,0.9-23.3,0.9-35.1,1.1
	c-26.5,0.6-53.3,0.4-79.6,0.4c-2.4,0-4.9,0-7.3-0.4c-8.6-1.7-12.2-5.8-13.7-14.6c-1.9-11.8-6.9-22.7-11.8-36
	c-3.4,7.7-3.4,13.9-4.5,19.9c-7.7,46.5-15.2,93.1-22.7,139.6c-3,18.6-6,37.5-8.8,56.1c-0.4,3.9-1.7,7.5-3.6,10.7
	c-3,5.1-9,8.1-15,7.1c-5.8-0.2-10.7-3.9-12.6-9.2c-0.9-2.6-1.5-5.4-1.9-7.9c-4.1-32.8-8.1-65.5-12.2-98.3
	c-3.9-31-7.3-62.1-10.9-93.3c-3.9-32.3-8.1-64.9-12.2-97.2c-1.5-1.5-0.6-3.6-1.1-4.9c-0.2,3-1.9,6-3,9
	c-10.9,37-21.8,73.9-32.5,110.9c-3.2,10.9-7.3,15.2-18.6,15.2c-58.2,0.2-116.7,0.4-175.1,0.4c-4.1,0-8.3,0-11.8-3
	c-4.3-3.9-7.1-8.6-5.8-14.6c1.3-6.2,6.4-10.9,12.8-12c2.4-0.2,4.9-0.4,7.3-0.4c50.7-0.4,101.5-1.1,152.2-1.5
	c11.8-0.2,10.7,1.9,14.6-11.1c15.8-54.2,31.9-108.3,47.7-162.5c0.9-3.4,1.9-6.6,3.4-9.8c3.2-7.1,8.1-10.1,15.6-9.4
	c7.1,0.4,13.1,5.4,15.2,12c2.6,7.9,2.4,16.3,3.4,24.6c4.1,31.5,7.5,62.9,11.1,94.2c3,24.8,6.4,49.9,9.4,74.7
	c2.4,19.1,4.7,38.3,7.1,57.4C1043.5,1241,1042.3,1246.4,1045.7,1242.7z"/>
</svg>
