<?xml version="1.0" encoding="utf-8"?>
<!-- Generator: Adobe Illustrator 27.3.1, SVG Export Plug-In . SVG Version: 6.00 Build 0)  -->
<svg version="1.1" id="games" xmlns="http://www.w3.org/2000/svg" xmlns:xlink="http://www.w3.org/1999/xlink" x="0px" y="0px"
	 viewBox="0 0 2048 2048" style="enable-background:new 0 0 2048 2048;" xml:space="preserve">
<style type="text/css">
	.st0{fill:#231F20;stroke:url(#SVGID_1_);stroke-width:30;stroke-linecap:round;stroke-linejoin:round;stroke-miterlimit:10;}
	.st1{fill:#009C59;}
	.st2{fill:#00D16E;}
	.st3{fill:#009B59;}
</style>
<g>
	<g>
		
			<linearGradient id="SVGID_1_" gradientUnits="userSpaceOnUse" x1="132.3717" y1="1024" x2="1881.6283" y2="1024" gradientTransform="matrix(1 0 0 -1 0 2048)">
			<stop  offset="0" style="stop-color:#009C59"/>
			<stop  offset="0.1381" style="stop-color:#009F57"/>
			<stop  offset="0.2323" style="stop-color:#00A84E"/>
			<stop  offset="0.3134" style="stop-color:#00B741"/>
			<stop  offset="0.3871" style="stop-color:#00CD2D"/>
			<stop  offset="0.4552" style="stop-color:#00E814"/>
			<stop  offset="0.5" style="stop-color:#00FF00"/>
			<stop  offset="0.5481" style="stop-color:#00E517"/>
			<stop  offset="0.6119" style="stop-color:#00CB2F"/>
			<stop  offset="0.6818" style="stop-color:#00B642"/>
			<stop  offset="0.7599" style="stop-color:#00A74F"/>
			<stop  offset="0.8531" style="stop-color:#009F57"/>
			<stop  offset="1" style="stop-color:#009C59"/>

<animateTransform attributeName="gradientTransform" type="rotate" from="0 40 40" to="360 40 40" dur="5s"
             repeatCount="indefinite" />		</linearGradient>
		<polygon class="st0" points="147.4,534.4 1021.5,31.6 1866.6,522.7 1866.6,1520.3 1007.1,2016.4 159.1,1516.9 		"/>
	</g>
</g>
<path class="st1" d="M616.2,1003.4c2.3-151.2-4.9-303.3,2.8-454.1c16.3-75.3,100.7-73.6,162.3-71.3c169.3,0,338.3,0,507.5-0.2
	c51.1-2.3,106.5,29.9,108.2,85.5c1.9,291.6,2.8,583.3,0.2,875.1c-0.2,48.8-30.1,80-75.7,90.1c-190.9,8.3-383.7,0-575,3
	c-54.3,6.4-122-16.1-129-78.1C613.4,1303.5,617.4,1153.3,616.2,1003.4z"/>
<path d="M1365.3,980.9c0,129.6,0.2,259,0,388.6c-0.4,9.5-3.8,12.9-13.4,13.4c-137.2,2.1-274.2,1.5-411.5,1.7
	c-92.3,0.6-184.5-0.6-276.8-1.7c-12.7-0.2-14.8-2.3-14.8-15.5c-1.1-266-1.7-531.9,0.2-797.9c0.2-18,6.8-32,22.5-42
	c16.5-10.6,35.6-16.1,55.4-15.9c161.6-0.2,323-0.2,484.6-0.2c45.6,2.5,96.5-10,135.5,19.7c10.2,7.2,16.3,18.7,16.8,31
	c3.4,139.6,0.4,279.1,1.3,418.7L1365.3,980.9z"/>
<path d="M1007.1,1497.8c-61.1,0-42.6-87.6,13.1-69.1C1060.5,1440.9,1048.2,1501,1007.1,1497.8z"/>
<path class="st2" d="M1018.7,803.8c67.7,4.9,140.6-13.1,204.5,14.4c73.2,40.3,83.6,147.4,29.3,208.9c-50.9,62.1-151,78.7-212.7,22.7
	c-10.6-9.5-23.1-7.6-35.4-8.7c-47.3,1.5-51.8,51.5-138.7,41.4c-117.9-5.7-186.6-162.5-99.7-246C822.1,781.5,943.9,810,1018.7,803.8
	L1018.7,803.8z"/>
<path class="st3" d="M1297.4,603.8c-29.3,0.6-27.6-43.5,0-43.7C1325.6,561.2,1326.3,603.2,1297.4,603.8z"/>
<path class="st1" d="M926.9,939.1c-0.2,21-46.9-2.8-43.7,17.2c-2.5,11.9,7.2,39.4-8.9,41.8c-17.6-1.1-7.4-28.8-10-40.7
	c1.7-21.8-42.8,2.8-45.2-17.6c1.9-16.3,24.6-9.1,35.8-10.6c8.5-0.2,10.8-2.8,8.7-11c-2.3-11.7-2.1-23.5,0.4-35
	c2.5-11.5,17.6-9.5,18.9,2.1c0.4,10.8,0,21.6,0.2,32.2c0,11.5,0,11.7,11.2,11.7C904.6,930.9,926.7,923.6,926.9,939.1z"/>
<path class="st1" d="M1091.9,916.9c29.5,0.8,30.3,45,0.2,45.8C1062,962.2,1062.2,918.3,1091.9,916.9z"/>
<path class="st1" d="M1140,962.7c30.3,0.6,28.8,43.5,0.4,45.4C1111.4,1007.6,1108.9,963.1,1140,962.7z"/>
<path class="st1" d="M1162.9,894c-1.1,30.3-41.8,29.5-44.3,0.2C1119.7,864.5,1162.9,864,1162.9,894z"/>
<path class="st1" d="M1204.7,940.6c-0.8,29.7-43.9,28.8-44.1-1.3C1160,911.1,1206.9,909.6,1204.7,940.6z"/>
</svg>
