<?xml version="1.0" encoding="utf-8"?>
<!-- Generator: Adobe Illustrator 27.3.1, SVG Export Plug-In . SVG Version: 6.00 Build 0)  -->
<svg version="1.1" id="more" xmlns="http://www.w3.org/2000/svg" xmlns:xlink="http://www.w3.org/1999/xlink" x="0px" y="0px"
	 viewBox="0 0 2048 2048" style="enable-background:new 0 0 2048 2048;" xml:space="preserve">
<style type="text/css">
	.st0{fill:#231F20;stroke:url(#SVGID_1_);stroke-width:30;stroke-linecap:round;stroke-linejoin:round;stroke-miterlimit:10;}
	.st1{fill:#009C59;}
	.st2{fill:#00D16E;}
</style>
<linearGradient id="SVGID_1_" gradientUnits="userSpaceOnUse" x1="126.2472" y1="1016.2184" x2="1871.6255" y2="1016.2184">
	<stop  offset="0" style="stop-color:#009C59"/>
	<stop  offset="0.1397" style="stop-color:#009F57"/>
	<stop  offset="0.2337" style="stop-color:#00A84F"/>
	<stop  offset="0.3142" style="stop-color:#00B741"/>
	<stop  offset="0.3872" style="stop-color:#00CC2E"/>
	<stop  offset="0.4545" style="stop-color:#00E815"/>
	<stop  offset="0.5" style="stop-color:#00FF00"/>
	<stop  offset="0.5422" style="stop-color:#00EA13"/>
	<stop  offset="0.613" style="stop-color:#00CE2C"/>
	<stop  offset="0.6892" style="stop-color:#00B840"/>
	<stop  offset="0.7722" style="stop-color:#00A84E"/>
	<stop  offset="0.8671" style="stop-color:#009F56"/>
	<stop  offset="1" style="stop-color:#009C59"/>
	<animateTransform attributeName="gradientTransform" type="rotate" from="0 40 40" to="360 40 40" dur="5s"
             repeatCount="indefinite" />
</linearGradient>
<polygon class="st0" points="141.2,523.5 998.9,30.1 1856.6,511.8 1856.6,1507.3 998.9,2002.3 152.9,1503.8 "/>
<path class="st1" d="M925,495c14.2,0.7,27.4,5.2,40.9,8.5c80.6,19.4,160.9,39,241.3,58.6c55.7,13.5,111.7,27.2,167.5,40.7
	c2.8,0.7,5.9,1.3,8.9,1.7c14.6,2.4,19.6,6.8,22.9,21.1c7.2,30.5,14.2,61,21.1,91.7c12.4,54.4,25,108.9,37.5,163.3
	c22.9,99.3,45.7,198.6,68.8,298.1c2.8,12.4-0.4,21.6-10.7,29.6c-56.4,45.3-112.1,91.2-168.1,136.8
	c-55.1,44.9-110.4,89.7-165.5,134.6c-37.2,30.3-74.7,60.3-111.7,91c-10.9,8.9-21.3,9.6-33.5,3.7c-60.3-28.3-120.6-56.4-181.2-84.3
	c-65.5-30.5-131.1-60.8-196.6-91.2c-11.8-5.4-23.3-10.9-35.1-16.1c-8.7-4.1-13.9-10.9-17.2-20c-16.1-45.7-32.4-91.2-48.8-136.8
	L438.3,869.5c-3.5-9.6-7-19.2-10.2-29c-4.6-13.5-2.2-21.6,9.4-29.4c32.9-22.2,66.2-44,99.3-66c109.5-72.5,218.8-145,328.4-217.5
	c14.2-9.4,28.5-18.5,42.7-28.1C912.8,496.3,918.9,494.5,925,495z"/>
<path d="M1374.7,664c8.1,34,15.7,67.1,23.5,100.2c10.5,44.9,20.5,89.7,30.9,134.6c20.7,89.7,41.6,179.4,62.3,269.2
	c0,0.4,0.2,0.7,0.2,1.1c3.3,8.3,0.9,14.2-6.5,20c-21.8,17-42.9,34.6-64.5,52c-44.2,36.1-88.6,72.1-132.8,108
	c-47,38.1-93.9,76.4-140.9,114.5c-22.6,18.3-45.1,36.8-67.7,55.3c-2.6,2.2-4.8,5-8.7,5.7c-2.6-2.2-2.8-5.7-3.9-8.7
	c-38.1-119.8-76.2-239.8-114.3-359.5c-15.2-47.9-30.5-95.8-45.7-143.7c-4.4-13.7-4.4-13.5,7.2-21.8l387.2-275.7
	c23.1-16.5,46.2-32.9,69.2-49.2C1371.9,665,1373.2,664.4,1374.7,664z"/>
<path d="M487.1,825.5c22-14.6,42.5-28.3,62.9-41.8l208.2-137.8c53.4-35.3,106.7-70.3,159.8-106c5.4-3.9,12.4-5,18.9-3
	c80.8,19.8,161.6,39.2,242.4,58.8c52.3,12.6,104.3,25.3,156.4,38.1c2.2,0.2,4.1,1.3,5.2,3c-2.2,4.4-7,6.3-10.7,8.9
	c-84.7,60.3-169.4,120.6-254.1,181c-62.9,44.9-125.6,89.5-188.4,134.4c-7,5-12.8,6.3-21.6,3c-83-30.9-166.2-61-249.3-91.2
	C576,858,535.2,843,494.3,828.1C492.3,828.1,490.8,827.3,487.1,825.5z"/>
<path d="M481,865.8c24.4,8.7,47.9,17,71.2,25.7c66.6,24.4,133.5,48.8,200.1,73.4c33.8,12.4,67.5,24.8,101.3,36.8
	c6.1,1.7,10.9,6.8,12.4,13.1c24,76.4,48.3,152.7,72.5,229.1c28.5,89.7,56.8,179.4,85.1,268.9c0.7,2.4,2.6,4.8,0.7,8.3
	c-10-2.6-19.2-7.8-28.5-12.2c-82.3-38.1-164.6-76.4-246.7-114.8c-29.8-13.9-59.7-27.7-89.7-41.4c-5.7-2.4-9.8-7-11.5-12.8
	c-39.2-110.4-78.4-220.6-118-331c-15.5-43.1-30.7-86-46.2-129.1C482.5,875.6,480.4,871.9,481,865.8z"/>
<path class="st2" d="M1060,1115.8c0.7-23.5,7.6-45.7,18.1-66.9c20.3-40.5,49.6-74,84.5-102.8c27.2-22.4,56.4-42,89.3-55.5
	c15-6.3,30.7-10.9,47-11.8c41.2-2.2,62.5,22.6,65.1,60.8c1.1,16.3-2.6,32.2-7.6,47.9c-7.2,22-17.4,42.7-28.3,62.9
	c-8.9,17-17.9,34.2-26.8,51.4c-3.9,7.8-7,15.9-9.4,24.4c-2.6,8.5-3.5,17.2,0.2,25.5c2,4.1,0.9,6.8-2.6,9.6
	c-21.6,16.8-42.9,33.8-64,50.7c-3.7,3-6.1,2.2-7.8-1.7c-4.1-9.8-5.7-20.5-4.4-31.1c2-16.5,6.5-32.7,13.3-47.9
	c10.7-25.5,24.8-49.2,37.7-73.6c10-18.7,20-37.5,23.5-58.6c0.7-3,1.1-5.9,0.9-8.9c-1.5-22.6-14.6-36.6-39.2-31.6
	c-3.7,0.7-7.4,1.7-10.9,3c-36.6,15.9-66,39.9-83.4,76.4c-10,20.9-11.8,42,1.5,62.7c2.4,3.7,1.5,5.9-1.7,8.3
	c-24.6,18.3-49.2,36.6-73.8,54.9c-4.1,3.3-6.5,2.4-8.9-1.7C1064.2,1147.8,1060,1132.1,1060,1115.8z"/>
<path class="st2" d="M1228.2,1270.2c0.2-9.1,2.6-18.1,7.2-25.9c11.8-21.8,29.6-39.6,51.6-51c6.3-3.7,13.3-5.7,20.5-5.9
	c9.6,0,15.5,4.4,18.7,13.3c3.3,8.9,1.7,18.1-1.5,26.6c-12,29.8-33.8,50.5-62.5,64.2c-1.3,0.7-2.8,1.1-4.4,1.3
	C1239.9,1298.1,1227.9,1288.9,1228.2,1270.2z"/>
<path class="st2" d="M1002.3,711.6c-8.3,6.3-15.5,11.8-22.6,17.2c-14.6,10.9-29.2,21.8-43.8,32.7c-10,7.4-15.5,7.8-25.7,2
	c-8.5-4.8-13.1-14.6-11.1-24.2c1.3-8.3,3.9-16.1,7.6-23.7c6.1-12.2,12.2-24.4,18.3-36.6c2.8-5.4,4.8-11.1,5.4-17.2
	c0.7-7.8-2.2-11.8-9.8-14.4c-10.9-3.7-21.8-1.3-32.4,1.3c-16.8,3.9-32,11.3-46.8,19.8c-18.5,10.7-35.9,22.4-51.4,37.2
	c-5.9,5.4-10.7,11.8-14.2,18.9c-4.8,10.5-1.7,17.2,9.1,21.3c5,2,10.7,1.1,15.2,4.1c-0.7,3-3.3,4.1-5.4,5.7
	c-23.1,16.3-46.6,32.4-69.5,49c-4.8,3.7-10.9,5.2-16.8,4.1c-28.3-4.6-37.2-21.3-24-47c9.8-18.7,24.2-34,39.9-47.5
	c53.8-46.4,113.2-83.4,180.1-108c22.9-8.3,46.2-14.2,71-13.7c7.2,0,14.4,1.3,21.1,3.5c13.1,4.4,19.2,14.6,17,28.3
	c-1.5,8.5-4.1,17-8.1,24.8c-4.1,9.4-8.7,18.5-12.8,27.9c-1.3,2.8-2.4,5.7-3.3,8.5C984.5,700.8,986,704.5,1002.3,711.6z"/>
<path class="st2" d="M1060,712.1c2,0.2,4.6,0.4,7.2,1.1c12,2.4,15.5,10,10,20.9c-1.7,3.5-3.7,6.5-6.3,9.4
	c-23.3,25.5-51,43.6-85.1,50.5c-6.3,1.3-12.8,0.7-18.9-1.5c-7.6-2.6-10.2-8.3-7.8-16.1c1.1-3.7,2.8-7,5.2-10
	c24.4-28.5,54-47.9,91.7-53.8C1057,712.3,1058.3,712.3,1060,712.1z"/>
<path class="st2" d="M796.3,1276.1c-21.1-8.7-40.1-16.5-59.2-24.6c-2.4-1.1-4.4-3-5.4-5.4c-8.7-18.7-11.8-42.7,14.8-56.2
	c7.8-3.9,15.7-7.8,22.9-12.2c15.7-9.4,18.9-19.2,12.4-36.4c-4.6-11.5-11.5-22.2-20.3-30.9c-17.9-18.7-40.9-31.6-66.4-37.2
	c-2.6-0.7-5.2-1.1-7.8-1.1c-16.8-0.7-24.8,8.7-21.6,24.8c1.5,6.5,3.7,13.1,6.5,19.4c0.9,2.4,2.8,4.4,2.2,7.6
	c-4.8,0-8.5-2.4-12.6-3.9c-13.5-5-26.8-10.5-40.3-15.2c-5-1.5-9.1-5.2-11.1-10.2c-4.6-11.1-8.9-22.4-10.7-34.4
	c-3.5-24,9.8-40.5,34-42.7c15.2-1.1,30.3,0.7,44.9,5.2c56.6,17.2,105.4,47,143.9,92.5c14.2,17,25.5,35.5,31.6,57.1
	c2.6,7.8,3.5,16.3,2.6,24.6c-1.3,11.1-7.4,20.9-16.8,27.2c-6.5,4.4-13.5,8.3-20.9,11.3c-5.2,2.2-10.2,4.6-15.2,7.4
	c-11.1,6.5-13.5,13.5-9.8,25.7C794.2,1270,794.8,1271.7,796.3,1276.1z"/>
<path class="st2" d="M757.8,1280.4c2.4,0.2,4.8,0.9,7,1.3c23.1,7,43.1,21.3,56.8,41.2c4.4,5.9,7.2,12.6,8.3,19.6
	c1.3,8.3-2.8,13.1-11.1,13.5c-5,0.2-10-0.4-14.6-2.2c-21.3-7.2-39.9-20.7-53.1-38.8c-4.1-5.4-7.2-11.8-8.7-18.3
	C739.9,1285.9,744.7,1280.2,757.8,1280.4z"/>
</svg>
