<?xml version="1.0" encoding="utf-8"?>
<!-- Generator: Adobe Illustrator 27.3.1, SVG Export Plug-In . SVG Version: 6.00 Build 0)  -->
<svg version="1.1" id="survey" xmlns="http://www.w3.org/2000/svg" xmlns:xlink="http://www.w3.org/1999/xlink" x="0px" y="0px"
	 viewBox="0 0 2048 2048" style="enable-background:new 0 0 2048 2048;" xml:space="preserve">
<style type="text/css">
	.st0{fill:#231F20;stroke:url(#SVGID_1_);stroke-width:30;stroke-linecap:round;stroke-linejoin:round;stroke-miterlimit:10;}
	.st1{fill:#009C59;}
	.st2{fill:#00D16E;}
</style>
<linearGradient id="SVGID_1_" gradientUnits="userSpaceOnUse" x1="151.3108" y1="1016.2184" x2="1896.6892" y2="1016.2184">
	<stop  offset="0" style="stop-color:#009C59"/>
	<stop  offset="0.1397" style="stop-color:#009F57"/>
	<stop  offset="0.2337" style="stop-color:#00A84F"/>
	<stop  offset="0.3142" style="stop-color:#00B741"/>
	<stop  offset="0.3872" style="stop-color:#00CC2E"/>
	<stop  offset="0.4545" style="stop-color:#00E815"/>
	<stop  offset="0.5" style="stop-color:#00FF00"/>
	<stop  offset="0.5422" style="stop-color:#00EA13"/>
	<stop  offset="0.613" style="stop-color:#00CE2C"/>
	<stop  offset="0.6892" style="stop-color:#00B840"/>
	<stop  offset="0.7722" style="stop-color:#00A84E"/>
	<stop  offset="0.8671" style="stop-color:#009F56"/>
	<stop  offset="1" style="stop-color:#009C59"/>
	<animateTransform attributeName="gradientTransform" type="rotate" from="0 40 40" to="360 40 40" dur="5s"
             repeatCount="indefinite" />
</linearGradient>
<polygon class="st0" points="166.3,523.5 1024,30.1 1881.7,511.8 1881.7,1507.3 1024,2002.3 178,1503.8 "/>
<path class="st1" d="M1023.8,705h287.4c9.4,0,9.4,0,9.4-9.4c0-34.6,0-69.3,0-103.9c0-2.2,0-4.6,0-6.8c0.7-12.9,7.9-18,20.2-13.8
	c2.4,0.9,4.8,2,7,3.3c26.1,15.8,47.6,35.7,60.7,64c5.5,11.2,8.1,23.7,8.1,36.2c-2.4,155-1.3,310-2,465c-0.2,50,0.4,100.2-0.4,150.2
	c-0.7,37.5-0.7,75-0.7,112.7c0,12.3,0.9,24.3,0.9,36.6c0.2,9.6-0.9,19.3-3.3,28.5c-5.7,21-28.1,39.2-52.4,38.8
	c-73.7-0.9-147.3,0-220.8-0.7c-30.9-0.2-61.6-0.4-92.5-0.7c-23.7-0.2-47.6-0.2-71.2,0c-94.7,1.1-189.6,0.4-284.3,1.3
	c-30,0.2-54.8-23.5-55.7-53.3c-0.7-14.5-0.2-28.9-0.2-43.4c-0.2-129.8,0.4-259.3-0.9-389.1c-1.1-112.7,0.4-225.4-1.8-338
	c-0.7-39.9,17.8-67.5,45.6-91.9c7.2-6.4,15.1-12.1,23.7-16.7c2.4-1.5,5-2.6,7.9-3.5c11.6-3.1,18.2,2,18.2,13.8c0,36,0,71.9,0,107.9
	c0,2.6,0,5,0,7.7c-0.2,3.7,1.8,5.3,5.3,5c2.6,0,5,0,7.7,0L1023.8,705z"/>
<path class="st2" d="M1023.8,618.6H848.4c-2.6,0-5,0-7.7,0c-8.5-0.4-12.5-3.1-14.5-11.4c-12.1-48.9,6.6-102.8,67.1-119
	c11.2-3.1,17.1-7.7,19.3-18.4c2.4-12.5,9.6-23,16.7-33.3c7.2-10.5,18.9-17.1,31.6-18.2c20.8-2,41.7-2.8,62.5-2.6
	c20.6,0,41,0.4,61.6,2.4c15.3,1.5,27.4,8.3,35.7,21.3c6.8,10.5,13.2,21.5,15.8,33.8c1.8,8.5,6.1,12.3,15.1,14.2
	c25.9,5.5,46.7,19.5,60.5,42.3c14.7,24.6,15.3,51.1,9.4,78.3c-1.5,6.8-6.1,9.9-13.4,10.3c-2.6,0.2-5,0-7.7,0L1023.8,618.6z"/>
<path d="M1023.1,934.5H737.9c-12.9,0-11.6,0.9-11.8-12.1c0-24.1,0-48.2,0-72.1c0-8.3,0.2-8.3,8.5-8.3c93.8,0,187.7,0,281.5,0.2
	c97.8,0,195.3,0,293.1-0.2c14.2,0,12.7-1.5,12.7,12.9c0,23.5,0,46.9,0,70.4c0,9.4,0,9.4-9.6,9.4h-289.2V934.5z"/>
<path d="M1024.2,1288.8h286.3c12.5,0,11.6-1.1,11.6,11.4c0,23.7,0,47.6,0,71.2c0,10.1,0,10.1-9.9,10.1c-44.9,0-89.9,0-135,0
	c-145.3,0-290.5,0-435.6,0H736c-9.4,0-9.4,0-9.4-9.4c0-24.3,0-48.7,0-73.2c0-9.9,0-10.1,9.9-10.1l218.8,0.2L1024.2,1288.8
	L1024.2,1288.8z"/>
<path d="M1025.1,991.5h288.1c8.5,0.2,8.8,0.2,8.8,8.5c0,17.8,0,35.3,0,52.8c0,8.3-0.2,16.7,0,25c0,4.4-1.8,6.6-6.4,6.4
	c-2.6-0.2-5,0-7.7,0c-83.5,0-167-0.2-250.6-0.2c-15.3,0-30.9-1.1-46.3-0.7c-90.3,1.8-180.4,0.4-270.7,1.1h-4.8c-9.4,0-9.4,0-9.4-9.4
	c0-24.1,0-48.2,0-72.1c0-11,0-11,11-11l286.3,0.4h2L1025.1,991.5z"/>
<path d="M1024.4,1139.9h288.9c8.3,0.2,8.5,0.2,8.5,8.5c0,24.8,0,49.5,0,74.1c0,9.9,0,10.1-10.3,9.9c-85.1,0-170.3-0.2-255.4-0.2
	c-105.2,0-210.7,0-315.9,0.2c-16.2,0-14,2-14.2-14.5c-0.2-22.8,0-45.6,0-68.4c0-9.9,0-9.9,10.1-9.9h288.3V1139.9z"/>
</svg>
