<?xml version="1.0" encoding="utf-8"?>
<!-- Generator: Adobe Illustrator 27.3.1, SVG Export Plug-In . SVG Version: 6.00 Build 0)  -->
<svg version="1.1" id="task" xmlns="http://www.w3.org/2000/svg" xmlns:xlink="http://www.w3.org/1999/xlink" x="0px" y="0px"
	 viewBox="0 0 2048 2048" style="enable-background:new 0 0 2048 2048;" xml:space="preserve">
<style type="text/css">
	.st0{fill:#231F20;stroke:url(#SVGID_1_);stroke-width:30;stroke-linecap:round;stroke-linejoin:round;stroke-miterlimit:10;}
	.st1{fill:#009C59;}
	.st2{fill:#00D16E;}
</style>
<g id="tasks">
	<linearGradient id="SVGID_1_" gradientUnits="userSpaceOnUse" x1="126.2472" y1="1016.2184" x2="1871.6255" y2="1016.2184">
		<stop  offset="0" style="stop-color:#009C59"/>
		<stop  offset="0.1397" style="stop-color:#009F57"/>
		<stop  offset="0.2337" style="stop-color:#00A84F"/>
		<stop  offset="0.3142" style="stop-color:#00B741"/>
		<stop  offset="0.3872" style="stop-color:#00CC2E"/>
		<stop  offset="0.4545" style="stop-color:#00E815"/>
		<stop  offset="0.5" style="stop-color:#00FF00"/>
		<stop  offset="0.5422" style="stop-color:#00EA13"/>
		<stop  offset="0.613" style="stop-color:#00CE2C"/>
		<stop  offset="0.6892" style="stop-color:#00B840"/>
		<stop  offset="0.7722" style="stop-color:#00A84E"/>
		<stop  offset="0.8671" style="stop-color:#009F56"/>
		<stop  offset="1" style="stop-color:#009C59"/>
		<animateTransform attributeName="gradientTransform" type="rotate" from="0 40 40" to="360 40 40" dur="5s"
             repeatCount="indefinite" />
	</linearGradient>
	<polygon class="st0" points="141.2,523.5 998.9,30.1 1856.6,511.8 1856.6,1507.3 998.9,2002.3 152.9,1503.8 	"/>
	<path class="st1" d="M1223,525.5c2.6,5.1,1.1,10.5,1.1,15.8c0.2,7,0.2,13.8,0,20.9c0,4,1.5,5.7,5.5,5.5c2.2-0.2,4.4,0,6.6,0
		c24.4,0,48.8,0,72.9-0.2c11.2-0.2,22,1.5,33,2.2c0.7,0,1.3,0.2,1.8,0.2c21.5,6.2,51.4,28.6,51.2,62.6c-0.4,259.7-0.4,519.2,0,778.9
		c0,12.5,0.9,25-1.8,37.8c-1.3,8.1-4.8,15.8-10.3,22c-14.3,16-31,27.2-53.6,28.1c-15.2,0.4-30.3,0.2-45.3,0.2
		c-186.3-0.2-372.6-0.2-559.2,0c-16,0-32.1,0.4-48.1-0.7c-25.7-1.8-43.1-16-56-36.9c-4.8-7.7-5.9-16.5-6.4-25.5
		c-0.4-8.6-0.4-16.9-0.4-25.5c0-251.8,0-503.3,0-755.1c0-11.9-0.4-23.9,1.8-35.8c1.3-9,5.5-17.6,11.4-24.6
		c9.7-11,20.9-20.2,35.4-24.4c9.4-2.4,19.3-3.7,29-3.5c27.5-0.2,54.9,0,82.4,0c4.2,0,8.1-0.2,12.3-0.2c2.9,2.6,3.1,6.2,3.1,9.4
		c0.2,21.1,0.2,42,0,63.1c0.2,3.1-0.4,6.4-2.2,9c-3.5,3.3-8.1,2.9-12.5,2.9c-13,0.2-25.9-0.2-38.9,0.2
		c-29.7,0.9-48.8,20.4-48.8,49.9c0,221.5,0,442.7,0,664.2c0,29.4,18.9,49,48.8,50.1c2.4,0,5.1,0,7.5,0c174.4,0,348.7,0,522.9,0
		c12.7,0,25.3-1.3,36.3-8.8c12.3-8.1,19.3-19.1,19.3-34.5c-0.2-225.9-0.2-451.5-0.2-677.4c0-21.8-14.1-38-36.9-42.2
		c-17.1-3.3-34.7-0.9-52.1-1.5c-3.7-0.2-7.7,1.1-11-1.5c-2.6-3.5-2.4-7.7-2.4-11.9c0-33.6,0-67.2,0-100.8
		C1219.5,533.4,1219.1,528.8,1223,525.5z"/>
	<path class="st2" d="M786.5,649.2v-81.7c0-12.1,0-23.9,0-36c0-11.2,3.5-14.5,14.9-14.3c27.7,0.2,55.6,0.7,83.3,0.9
		c12.1,0,11.9,0,13.6-11.9c5.7-36.3,21.8-66.6,54-85.7c41.5-24.8,115.6-21.5,148.3,48.6c6.2,13.2,10.1,27.2,11.6,41.7
		c0.9,7.3,0.9,7.5,7.7,7.5c28.8-0.2,57.3-0.7,86.1-0.9c6.8,0,14.5-1.3,16.7,8.3c-0.2,7.3-0.4,14.5-0.4,21.8
		c0,34.7,0.2,69.2,0.4,103.9c5.1,9.9,3.3,20.2,1.3,30.3c-1.1,5.7-6.4,8.3-11.9,9.4c-4.4,0.7-8.8,0.9-13.2,0.7H810.6
		c-3.1,0-6.4,0-9.4-0.2c-11-0.9-16.3-5.5-16.9-16.5C783.6,666.4,781.4,657.4,786.5,649.2z"/>
	<path d="M1035.4,513.4c0,17.4-13.8,32.3-30.3,32.3c-16.3,0-30.5-14.9-30.5-32.1s14.5-32.3,30.5-32.3
		C1021.1,481.4,1035.4,496.3,1035.4,513.4z"/>
	<path d="M786.5,649.2c0.2,7.5,0.4,15.2,0.4,22.6c0.2,13.4,3.3,16.5,16.9,16.5h400.3c2,0,3.7,0,5.7,0c9-0.4,12.5-3.7,13-12.7
		c0.2-8.1,0-16.5,0-24.6c2-2,4.4-2,7-2c15.8,0,31.6-0.2,47.5,0.2c18.2,0.7,32.5,8.8,42.6,24.2c3.3,4.6,5.1,10.3,5.1,16
		c0,6.4,0,12.5,0,18.9c0,220.4,0,440.9,0,661.3c0,27.9-18.2,47.2-46.4,49c-7.9,0.4-15.8,0.2-23.7,0.2c-170.5,0-341.2,0-511.7,0
		c-11.4,0-22.6-0.4-33-6.4c-16.9-9.4-25.9-22.6-25.9-42.6c0.2-223.9,0.2-448,0.2-671.9c0-27.5,20-48.1,47.9-49
		C750.4,648.8,768.5,649.2,786.5,649.2z"/>
	<path class="st2" d="M935.6,1169.9c-2.9,0.2-5.5-0.4-7.7-2.2c-2.4-2.2-4.8-4.2-7-6.4c-31.6-31.6-63.3-63.3-95.1-94.9
		c-1.3-1.3-2.6-2.6-4-4c-4.8-5.7-5.1-11,0.4-15.8c12.3-10.3,22.8-22.6,34.9-33.2c7.7-6.8,13.2-6.6,20.4,0.9
		c17.6,17.8,34.9,35.6,52.3,53.4c1.5,1.5,3.3,3.1,4.6,4.8c2.4,2.9,4.4,2.4,7,0c10.3-9.7,21.1-18.9,31.6-28.6l164.6-148.3
		c2.9-2.6,5.7-5.1,8.8-7.3c5.5-3.7,9.9-3.7,14.3,1.1c10.3,11.4,20.7,22.8,30.8,34.7c4.8,5.7,4.4,10.1-1.5,15.6
		c-11.4,10.8-23.1,21.5-34.7,32.1L955,1155.2c-4.4,4-8.8,8.1-13.4,12.1C940.3,1168.8,938.1,1169.7,935.6,1169.9z"/>
</g>
</svg>
