<?xml version="1.0" encoding="utf-8"?>
<!-- Generator: Adobe Illustrator 27.3.1, SVG Export Plug-In . SVG Version: 6.00 Build 0)  -->
<svg version="1.1" id="dıscord" xmlns="http://www.w3.org/2000/svg" xmlns:xlink="http://www.w3.org/1999/xlink" x="0px" y="0px"
	 viewBox="0 0 124 124" style="enable-background:new 0 0 124 124;" xml:space="preserve">
<style type="text/css">
	.st0{fill:none;stroke:url(#SVGID_1_);stroke-width:2;stroke-miterlimit:10;}
	.st1{fill:#00A147;}
</style>
<g>
	<polyline points="11.4,92.3 11.8,32.8 62.7,3.5 113.7,32.8 113.7,92.3 62.5,121.3 	"/>
	<g>
		<linearGradient id="SVGID_1_" gradientUnits="userSpaceOnUse" x1="9.9402" y1="62.427" x2="114.5379" y2="62.427">
			<stop  offset="0" style="stop-color:#179232"/>
			<stop  offset="0.5" style="stop-color:#80C41C"/>
			<stop  offset="1" style="stop-color:#189232"/>
		</linearGradient>
		<polygon class="st0" points="10.9,33.2 63.1,3.2 113.5,32.5 113.5,92 62.2,121.7 11.6,91.8 		"/>
	</g>
</g>
<g id="Layer_2_00000101804396895060765170000002161822611688730030_">
	<g>
		<g>
			<path class="st1" d="M87.1,42.1c-8.2-6-16-5.8-16-5.8l-0.8,0.9c9.7,2.9,14.2,7.1,14.2,7.1c-13.9-7.5-31.6-7.5-46,0
				c0,0,4.7-4.4,15-7.3l-0.6-0.7c0,0-7.8-0.2-16,5.8c0,0-8.2,14.6-8.2,32.5c0,0,4.8,8.1,17.4,8.5c0,0,2.1-2.5,3.8-4.6
				c-7.2-2.1-10-6.6-10-6.6c4.6,2.8,9.2,4.6,14.9,5.7c9.3,1.9,21-0.1,29.6-5.7c0,0-2.9,4.6-10.3,6.6c1.7,2.1,3.8,4.5,3.8,4.5
				c12.6-0.4,17.4-8.5,17.4-8.4C95.3,56.7,87.1,42.1,87.1,42.1z M51.4,69.4c-3.2,0-5.8-2.8-5.8-6.2c0.2-8.2,11.5-8.2,11.6,0
				C57.2,66.6,54.6,69.4,51.4,69.4z M72.2,69.4c-3.2,0-5.8-2.8-5.8-6.2c0.3-8.2,11.4-8.2,11.6,0C78,66.6,75.4,69.4,72.2,69.4z"/>
		</g>
	</g>
</g>
</svg>
