<?xml version="1.0" encoding="utf-8"?>
<!-- Generator: Adobe Illustrator 27.3.1, SVG Export Plug-In . SVG Version: 6.00 Build 0)  -->
<svg version="1.1" id="medium" xmlns="http://www.w3.org/2000/svg" xmlns:xlink="http://www.w3.org/1999/xlink" x="0px" y="0px"
	 viewBox="0 0 124 124" style="enable-background:new 0 0 124 124;" xml:space="preserve">
<style type="text/css">
	.st0{fill:none;stroke:url(#SVGID_1_);stroke-width:2;stroke-miterlimit:10;}
	.st1{fill:#00A147;}
</style>
<g>
	<polyline points="11.4,92.3 11.8,32.8 62.7,3.5 113.7,32.8 113.7,92.3 62.5,121.3 	"/>
	<g>
		<linearGradient id="SVGID_1_" gradientUnits="userSpaceOnUse" x1="9.9402" y1="62.427" x2="114.5379" y2="62.427">
			<stop  offset="0" style="stop-color:#179232"/>
			<stop  offset="0.5" style="stop-color:#80C41C"/>
			<stop  offset="1" style="stop-color:#189232"/>
		</linearGradient>
		<polygon class="st0" points="10.9,33.2 63.1,3.2 113.5,32.5 113.5,92 62.2,121.7 11.6,91.8 		"/>
	</g>
</g>
<path class="st1" d="M67.3,60.5c0,11.6-9.4,21.1-20.9,21.1c-11.5,0-20.9-9.4-20.9-21.1c0-11.6,9.4-21.1,20.9-21.1
	C57.9,39.5,67.3,48.9,67.3,60.5z M90.2,60.5c0,10.9-4.7,19.8-10.5,19.8s-10.5-8.9-10.5-19.8c0-10.9,4.7-19.8,10.5-19.8
	S90.2,49.6,90.2,60.5z M99.6,60.5c0,9.8-1.6,17.8-3.7,17.8c-2,0-3.7-8-3.7-17.8c0-9.8,1.6-17.8,3.7-17.8
	C98,42.8,99.6,50.7,99.6,60.5z"/>
</svg>
