<?xml version="1.0" encoding="utf-8"?>
<!-- Generator: Adobe Illustrator 27.3.1, SVG Export Plug-In . SVG Version: 6.00 Build 0)  -->
<svg version="1.1" id="telegram" xmlns="http://www.w3.org/2000/svg" xmlns:xlink="http://www.w3.org/1999/xlink" x="0px" y="0px"
	 viewBox="0 0 124 124" style="enable-background:new 0 0 124 124;" xml:space="preserve">
<style type="text/css">
	.st0{fill:none;stroke:url(#SVGID_1_);stroke-width:2;stroke-miterlimit:10;}
	.st1{fill:#00A147;}
</style>
<g>
	<polyline points="11.4,92.3 11.8,32.8 62,3.6 113.7,32.8 113.7,92.3 62.5,121.3 	"/>
	<g>
		
			<linearGradient id="SVGID_1_" gradientUnits="userSpaceOnUse" x1="9.8931" y1="63.549" x2="114.5" y2="63.549" gradientTransform="matrix(1 0 0 -1 0 126)">
			<stop  offset="0" style="stop-color:#179232"/>
			<stop  offset="0.5" style="stop-color:#80C41C"/>
			<stop  offset="1" style="stop-color:#189232"/>
		</linearGradient>
		<polygon class="st0" points="10.9,33.2 62,3.2 113.5,32.5 113.5,92 62.2,121.7 11.6,91.8 		"/>
	</g>
</g>
<path class="st1" d="M84.4,35.6L29.2,56.9c-3.7,1.4-3.7,3.7-0.7,4.4l13.9,4.4l5.4,16.2c0.7,1.7,0.3,2.4,2,2.4c1.4,0,2-0.7,2.7-1.4
	c0.3-0.3,3.4-3.4,6.8-6.8l14.2,10.5c2.7,1.4,4.4,0.7,5.1-2.4L88.1,40C89.1,36.2,86.8,34.2,84.4,35.6z M77.3,45.7l-26.4,24l-1,11.2
	l-5.4-16.2L75.6,45C77,44,78.3,44.7,77.3,45.7z"/>
</svg>
