<?xml version="1.0" encoding="utf-8"?>
<!-- Generator: Adobe Illustrator 27.3.1, SVG Export Plug-In . SVG Version: 6.00 Build 0)  -->
<svg version="1.1" id="twıtter" xmlns="http://www.w3.org/2000/svg" xmlns:xlink="http://www.w3.org/1999/xlink" x="0px" y="0px"
	 viewBox="0 0 124 124" style="enable-background:new 0 0 124 124;" xml:space="preserve">
<style type="text/css">
	.st0{fill:none;stroke:url(#SVGID_1_);stroke-width:2;stroke-miterlimit:10;}
	.st1{fill-rule:evenodd;clip-rule:evenodd;fill:#00A147;}
</style>
<g>
	<polyline points="9.9,91.9 10.2,32.3 61.2,3 112.1,32.3 112.1,91.9 61,120.9 	"/>
	<g>
		<linearGradient id="SVGID_1_" gradientUnits="userSpaceOnUse" x1="8.4235" y1="62.0012" x2="113.0213" y2="62.0012">
			<stop  offset="0" style="stop-color:#179232"/>
			<stop  offset="0.5" style="stop-color:#80C41C"/>
			<stop  offset="1" style="stop-color:#189232"/>
		</linearGradient>
		<polygon class="st0" points="9.4,32.8 61.6,2.8 112,32.1 112,91.6 60.7,121.2 10.1,91.4 		"/>
	</g>
</g>
<g id="Page-1">
	<g id="Dribbble-Light-Preview" transform="translate(-60.000000, -7521.000000)">
		<g id="icons" transform="translate(56.000000, 160.000000)">
			<path id="twitter-_x5B__x23_154_x5D_" class="st1" d="M52.4,7449.5c25,0,38.7-20.4,38.7-38.1c0-0.6,0-1.2,0-1.7
				c2.7-1.9,5-4.2,6.8-6.9c-2.5,1.1-5.1,1.8-7.8,2.1c2.8-1.7,5-4.3,6-7.4c-2.7,1.6-5.6,2.7-8.6,3.2c-5.1-5.4-13.8-5.6-19.2-0.6
				c-3.5,3.3-5,8.1-3.9,12.8c-10.9-0.5-21.1-5.6-28-14c-3.6,6.1-1.8,13.9,4.2,17.9c-2.2-0.1-4.3-0.6-6.2-1.7v0.2
				c0,6.4,4.6,11.9,10.9,13.1c-2,0.5-4.1,0.6-6.1,0.2c1.8,5.5,6.9,9.2,12.7,9.3c-4.8,3.7-10.8,5.7-16.9,5.7c-1.1,0-2.2-0.1-3.2-0.2
				C37.8,7447.4,45.1,7449.5,52.4,7449.5"/>
		</g>
	</g>
</g>
</svg>
